<svg xmlns="http://www.w3.org/2000/svg" width="64" height="64" viewBox="0 0 64 64"><path fill="#B4E52C" d="M1.7 34.6c.5.3 1.5.7 2.4.6.8 0 1.3-.4 1.3-1 0-.5-.3-.9-1.2-1.4-1.1-.6-1.9-1.5-1.9-2.7 0-2.1 1.8-3.5 4.3-3.5 1.1 0 2 .2 2.5.5l-.7 2.1c-.4-.2-1.1-.4-1.8-.4-.8 0-1.4.4-1.4 1 0 .5.4.8 1.1 1.2 1.1.7 2.1 1.6 2.1 2.8 0 2.3-1.9 3.7-4.5 3.6-1.2 0-2.3-.3-2.9-.7l.7-2.1zM9 37l2.9-15h2.9l-1.1 6v.1c.8-.9 1.8-1.5 3.1-1.5 1.5 0 2.4 1 2.4 2.7 0 .5-.1 1.2-.2 1.8L17.9 37H15l1.1-5.8c.1-.4.1-.8.1-1.2 0-.6-.3-1.1-.9-1.1-.9 0-1.9 1.1-2.3 3l-1 5H9zM29.9 30.7c0 3.6-2.3 6.7-5.8 6.7-2.6 0-4-1.8-4-4.1 0-3.6 2.3-6.7 5.9-6.7 2.6 0 3.9 2 3.9 4.1zM23 33.3c0 1.1.4 1.9 1.4 1.9 1.6 0 2.4-2.8 2.4-4.6 0-.9-.3-1.8-1.4-1.8-1.5.1-2.4 2.8-2.4 4.5zM29.1 41l2-10.4c.2-1.2.5-2.6.6-3.6h2.6l-.2 1c.8-1 1.9-1.6 3.1-1.6 2.1 0 3 1.9 3 3.8 0 3.6-2.3 7.1-5.7 7.1-.5.1-1.2-.3-1.5-.3h-.1l-.8 4h-3zm4.2-6.2c.3.3.7.4 1.2.4 1.6 0 2.8-2.7 2.8-4.6 0-.8-.3-1.6-1.2-1.6-1 0-2 1.2-2.3 3l-.5 2.8zM40.5 37l2-10h3l-2 10h-3zm3.8-11c-.8 0-1.4-.8-1.4-1.7 0-1 .7-1.8 1.7-1.8.9 0 1.5.8 1.5 1.6-.1 1.1-.9 1.9-1.8 1.9zM46 37l1.6-8h-1.4l.4-2H48l.1-.6c.2-1.2.7-2.5 1.7-3.4.8-.7 1.8-1 2.9-1 .7 0 1.3.1 1.6.2l-.6 2.3c-.3-.1-.6-.2-.9-.2-1 0-1.6 1-1.7 2l-.3.7h2l-.4 2h-2l-1.6 8H46zM56.5 27l.5 4.6c.1 1 .2 1.4.3 2.4.2-1 .4-1.3.9-2.4L60 27h3l-3.6 7.6c-1.3 2.6-2.5 4.5-3.9 5.8-1 1-2.3 1.4-2.9 1.6l-.8-2.5c.5-.2 1.1-.4 1.7-.8.7-.5 1.3-1.1 1.6-1.8.1-.1.1-.2.1-.4L53.4 27h3.1z"/><path fill="#8BB43F" d="M6.6 26.6c1.1 0 2 .2 2.5.5l-.7 2.1c-.4-.2-1.1-.4-1.8-.4-.8 0-1.4.4-1.4 1 0 .5.4.8 1.1 1.2 1.1.7 2.1 1.6 2.1 2.8 0 2.3-1.9 3.7-4.5 3.6-1.2 0-2.3-.3-2.9-.7l.7-2.1c.5.3 1.5.7 2.4.6.8 0 1.3-.4 1.3-1 0-.5-.3-.9-1.2-1.4-1.1-.6-1.9-1.5-1.9-2.7M9 37l2.6-11.9 3.2-2.9-1.1 5.9c.8-.9 1.8-1.5 3.1-1.5 1.5 0 2.4 1 2.4 2.7 0 .5-.1 1.2-.2 1.8L17.9 37H15l1.1-5.8c.1-.4.1-.8.1-1.2 0-.6-.3-1.1-.9-1.1-.9 0-1.9 1.1-2.3 3l-1 5H9zM25.9 26.6c2.7 0 4 2 4 4.1 0 3.6-2.3 6.7-5.8 6.7-2.6 0-4-1.8-4-4.1m2.9 0c0 1.1.4 1.9 1.4 1.9 1.6 0 2.4-2.8 2.4-4.6 0-.9-.3-1.8-1.4-1.8-1.5.1-2.4 2.8-2.4 4.5zM34.4 27l-.2 1c.8-1 1.9-1.6 3.1-1.6 2.1 0 3 1.9 3 3.8 0 3.6-2.3 7.1-5.7 7.1-.6.1-1.3-.3-1.6-.3h-.1l-.8 4h-2.9l2-10.6m2.1 4.4c.3.3.7.4 1.2.4 1.6 0 2.8-2.7 2.8-4.6 0-.8-.3-1.6-1.2-1.6-1 0-2 1.2-2.3 3l-.5 2.8zM40.5 37l2-7.6 3-2.4-2 10h-3zm4.1-14.5c.9 0 1.5.7 1.5 1.6 0 1.1-.8 1.9-1.7 1.9-.8 0-1.4-.8-1.4-1.7M52.6 22c.7 0 1.3.1 1.6.3l-.6 2.3c-.3-.1-.6-.2-.9-.2-1 0-1.6 1-1.7 2l-.2.6h2l-.4 2h-2l-1.6 8H46l1.6-8h-1.4l.4-2H48l.1-.6M56.5 27l.5 4.5c.1 1 .2 1.5.3 2.5.2-1 .4-1.3.9-2.4L60 27h3l-3.6 7.6c-1.3 2.6-2.5 4.5-3.9 5.8-1 1-2.3 1.4-2.9 1.6l-.8-2.5c.5-.2 1.1-.4 1.7-.8.7-.5 1.3-1.1 1.6-1.8.1-.1.1-.3.1-.5l-.7-7.2 2-2.2z"/></svg>