<svg xmlns="http://www.w3.org/2000/svg" xmlns:xlink="http://www.w3.org/1999/xlink" viewBox="0 0 6000 4000"><defs><linearGradient id="a" x1="2781.25" x2="2950.19" y1="535.49" y2="1361.83" gradientUnits="userSpaceOnUse"><stop offset="0" stop-color="#fff"/><stop offset="1" stop-color="#f2f2f2" stop-opacity="0"/></linearGradient><linearGradient id="b" x1="4763.79" x2="4833.34" y1="704.38" y2="1044.57" gradientTransform="rotate(15.61 4441.408 1466.998)" xlink:href="#a"/></defs><path fill="#bfda4e" d="M2059.16,1863.6,442.1,3033.39c54.07,125.79,133.21,237.63,239.91,321,0,0,53.64,68.13,172.49,152.09L2421.35,1863.6Z"/><path fill="#93c74b" d="M2421.35 1863.6L854.5 3506.48c130.38 92.11 339.26 203.26 642 264.44l1260-1907.32zM1549.59 1863.6L359.43 2426.27c-22.72 201.37 2.14 419.73 82.67 607.12L2059.16 1863.6zM2967.46 1863.6l-812.37 1948c12-.71 24.15-1.47 36.37-2.33 281.3-19.89 510.58-55.55 695.95-97.52L3168.88 1863.6z"/><path fill="#bfda4e" d="M624.74 1863.6C479.07 1975.24 386.22 2189 359.43 2426.27L1549.59 1863.6zM2756.45 1863.6l-1260 1907.32c183.79 37.14 402.2 55.83 658.61 40.66l812.37-1948z"/><path fill="#93c74b" d="M5343.38,3044.68c-36.22,38.9-77.78,74-123.61,105.6q-9.65,6.66-19.55,13.11a1031.47,1031.47,0,0,1-91.85,53.13q-8.69,4.47-17.53,8.82-48.43,23.89-100.41,44.25c-4.34,1.72-8.7,3.4-13.08,5.08-4.72,1.8-9.44,3.59-14.2,5.36q-10.2,3.79-20.5,7.47-27.8,9.9-56.28,18.93L4852,3252.17l-21.74-34.29-199.88-315.16-659-1039.12h306.49l896.83,994.08,90.6,100.42,20.87,23.13Z"/><path fill="#bfda4e" d="M3588.94 3419.63c-15.75 14.93-138.44 124.24-455.9 225.75q-51.63 16.53-110.26 32.63-12 3.25-24.27 6.51-33.83 9-70 17.62-20.19 4.83-41.14 9.59l15.92-104.56 49.54-325.25 216-1418.32H3446.8zM5530.34 2514.23c-5.79 85.1-20.61 176.24-47.1 273.26q-4 14.79-8.45 29.77c-25.75 87.5-71.21 162.75-131.41 227.42l-168.72-187L4277.83 1863.6h439.64z"/><path fill="#93c74b" d="M5380.88 1863.6H4717.47l812.87 650.63C5549.93 2226.38 5466.12 2007.57 5380.88 1863.6zM3446.8 1863.6l142.14 1556c1.19-1.13 1.79-1.74 1.79-1.74s255.18 22.73 578.89 5.41L3662.7 1863.6z"/><path fill="#bfda4e" d="M4886.37,3306.43c-39.06,12.4-79,23.61-119.49,33.73-197.82,49.47-409.11,73.07-597.26,83.14L3662.71,1863.6h308.63l659,1039.12,199.88,315.16,21.74,34.29Z"/><path fill="#76ae28" d="M4357.17 1895.13s44.89 16.43 59.58 62.34 95.49 69.78 106.51 80.79 11 20.2 23.87 51.42 56 56 79 79 44.07 45.91 44.07 68 76.21 28.46 91.82 67.94 40.69 112.66 77.64 149.61 20.37 8.41 72.05 60.09 75.08 87 96.2 108.16-5-17 76.67 64.71 154.88 115.07 176.91 137.1l81.93 81.93c9.89 9.89 48 80.35 48 80.35l-48 58.2L4277.82 1863.6l33.34 1.13S4343.5 1881.46 4357.17 1895.13zM4717.47 1863.6l242.18 193.84 570.69 456.79s9.25-33.39 2.4-49.93-39.91-4.6-55.52-20.21-15.61-30.3-28.46-43.15-57.76-33.35-73.16-42.24S5244.17 2226 5216.46 2210s-38-16.31-67-33.05-50-31.68-61.52-43.16-71.16-61.06-82.63-72.53 12.27-18.53-30.3-30.3-70.15-24.5-77.7-32.06-19.63-42.31-33.4-56.08-6.94-21.14-37.64-30.3-48-26.42-48-26.42l-23.66-22.46zM4904.08 3220.85c-26.06-26.07-19.07-49.58-33.76-64.27s-29.38-33.06-56.93-60.6-73.45-73.45-73.45-73.45-28.38-116.58-82.58-170.78-71.67-77.13-90-117.52-2.76-76.21-38.57-112l-71.61-71.62c-24.79-24.79-18.36-1.83-45.91-62.43s-104.47-99.16-115.58-168.94-100.86-152.95-126-178.12-26.48-44.07-46.68-80.8-62.43-110.18-79-126.71-60.6-70-60.6-70h-12l915 1442.84s88.34-25.74 96.49-33.89S4930.15 3246.91 4904.08 3220.85zM3662.7 1863.6l91.89 282.74 415 1277 126-8.65s-43.25-13.84-67.12-37.72-41.08-64.8-58.91-82.63-46.68-57.84-46.68-96.41-35.81-179-63.35-245.14-46.83-93.29-66.11-165.09S3807 2307.93 3817.74 2297.18s-138.27-403.07-138.27-403.07l-11-30.52zM3446.8 1863.6l142.14 1556s141 14 141 10.18-58.76-10.64-86.31-58.38-54.72-55.09-54.72-91.82-15.06-161.6-15.06-236.88 4.42-126.44-20.2-202.5-7.34-234.55-18.36-324.53-22-143.23-22-143.23S3460 1948.74 3460 1938.64s-6.88-75.05-6.88-75.05zM3190.1 1863.6s-27.55 194.87-34.89 248.11-11 62.44-11 104.67-62.42 345.23-71.61 413.17-9.18 104.67-9.18 148.75-42.23 328.7-42.23 359.91V3208c0 33.06-53.7 347.07-53.7 378.29s12 103.2 12 103.2l-28 6.77-13.55 3.27-50.56 12.21 9.23-60.54 2.4-15.83L3168.87 1863.6zM2967.46 1863.6l-172.91 414.61L2155.09 3811.58l52.83-6.22s-14.43-17.09 0-46.47 36.47-64.27 53-110.18 38.56-84.47 38.56-110.18 23.88-73.45 47.75-126.71 222.19-533.52 240.55-571.59 79-146.4 102.84-216.18S2866.9 2165 2866.9 2146.61s23-70.7 34.89-82.64 74.68-200.38 74.68-200.38zM2756.45 1863.6L1817.56 3287.12l-122.22 185.3 22 34.06s147.37-253.5 180-286.1 85.39-62.43 130.84-150.57 11-45.45 57.84-125.33 135-209.34 161.14-253.41 34.43-42.69 60.6-86.76 44.07-74.37 62-106 168.71-291.28 173.53-296.11 44.08-59.22 59.22-85.38 89.52-143.24 101.92-155.63 58.76-97.55 58.76-97.55zM2421.35 1863.6l-544.88 571.32s111.72-77 133.79-99.1 32-49.31 48.9-66.18 37.09-46.3 58.88-58.87S2218 2109.27 2234.86 2086s17.49-19 41.36-52 142.62-153 142.62-153l15.92-17.35zM2059.16 1863.6L1675 2141.49s66.61-20.56 80.93-28.83 38.57-38.57 55.56-55.56 40-32.64 55.59-48.22 157.18-106.73 164.29-113.85 40.86-31.44 40.86-31.44zM476.67 3105.37s42.69-18.89 72-72 55.64-88.12 76.09-99.92 65.64-41.81 90.43-66.6 395.3-296.08 395.3-296.08l-92.44 46L442.1 3033.39zM359.43 2426.27l680.34-321.65s-20 40.31-40.31 40.31-312.8 154.7-336.13 168.17S644 2317 626.85 2334.16s-271.7 137.36-271.7 137.36z"/><g opacity=".99"><polyline fill="none" stroke="#fff" stroke-linecap="round" stroke-linejoin="round" stroke-width="7" points="2850.11 2170.11 2866.79 2128.31 2911.79 2128.31"/><line x1="3016.49" x2="3382.96" y1="2128.31" y2="2128.31" fill="none" stroke="#fff" stroke-dasharray="104.71 104.71" stroke-linecap="round" stroke-linejoin="round" stroke-width="7"/><polyline fill="none" stroke="#fff" stroke-linecap="round" stroke-linejoin="round" stroke-width="7" points="3435.32 2128.31 3480.32 2128.31 3484.42 2173.12"/><line x1="3493.73" x2="3544.92" y1="2274.69" y2="2833.31" fill="none" stroke="#fff" stroke-dasharray="101.99 101.99" stroke-linecap="round" stroke-linejoin="round" stroke-width="7"/><polyline fill="none" stroke="#fff" stroke-linecap="round" stroke-linejoin="round" stroke-width="7" points="3549.58 2884.09 3553.68 2928.9 3508.68 2928.9"/><line x1="3425.38" x2="2634.03" y1="2928.9" y2="2928.9" fill="none" stroke="#fff" stroke-dasharray="83.3 83.3" stroke-linecap="round" stroke-linejoin="round" stroke-width="7"/><polyline fill="none" stroke="#fff" stroke-linecap="round" stroke-linejoin="round" stroke-width="7" points="2592.38 2928.9 2547.38 2928.9 2564.05 2887.11"/><line x1="2595.84" x2="2834.22" y1="2807.44" y2="2209.94" fill="none" stroke="#fff" stroke-dasharray="85.77 85.77" stroke-linecap="round" stroke-linejoin="round" stroke-width="7"/></g><g opacity=".99"><polyline fill="none" stroke="#fff" stroke-linecap="round" stroke-linejoin="round" stroke-width="7" points="3723.04 2025.89 3708.75 1983.22 3753.75 1983.22"/><line x1="3837.61" x2="4298.82" y1="1983.22" y2="1983.22" fill="none" stroke="#fff" stroke-dasharray="83.86 83.86" stroke-linecap="round" stroke-linejoin="round" stroke-width="7"/><polyline fill="none" stroke="#fff" stroke-linecap="round" stroke-linejoin="round" stroke-width="7" points="4340.75 1983.22 4385.75 1983.22 4416.18 2016.37"/><line x1="4479" x2="4824.52" y1="2084.81" y2="2461.24" fill="none" stroke="#fff" stroke-dasharray="92.9 92.9" stroke-linecap="round" stroke-linejoin="round" stroke-width="7"/><polyline fill="none" stroke="#fff" stroke-linecap="round" stroke-linejoin="round" stroke-width="7" points="4855.94 2495.45 4886.37 2528.61 4841.4 2530.4"/><line x1="4742.3" x2="3999.01" y1="2534.34" y2="2563.94" fill="none" stroke="#fff" stroke-dasharray="99.18 99.18" stroke-linecap="round" stroke-linejoin="round" stroke-width="7"/><polyline fill="none" stroke="#fff" stroke-linecap="round" stroke-linejoin="round" stroke-width="7" points="3949.46 2565.92 3904.5 2567.71 3890.21 2525.04"/><line x1="3856.77" x2="3739.76" y1="2425.21" y2="2075.81" fill="none" stroke="#fff" stroke-dasharray="105.28 105.28" stroke-linecap="round" stroke-linejoin="round" stroke-width="7"/></g><path fill="#bde9ff" d="M5380.88,1863.59H624.74c67.6-51.8,146.57-81.63,235.58-81.63,0-29.13,12-67.51,34.79-110.08,123.79-231.14,566.56-585.79,1142.1-253.51-88.14-352.57,132.21-980.58,837.35-727.17,506.83-606,1630.64-253.41,1696.76,99.16,526.79,125.79,632.76,515.3,650.25,728.07,7,85.41-.2,142.33-.2,142.33S5301.74,1729.93,5380.88,1863.59Z"/><path fill="#1ca3e5" d="M5380.88,1863.59H4442.46S4905.21,1613,5020.89,1613s165.69-12.85,190.28-74.57a116.9,116.9,0,0,1,10.4-20c7,85.41-.2,142.33-.2,142.33S5301.74,1729.93,5380.88,1863.59Z"/><path fill="#78c1e5" d="M4027.64,1863.59H2305V1752.12S2831.83,1613,2918.22,1613s462.13,111.17,510.59,139.14,252,57.84,379.4,57.84C3915.48,1810,4002.73,1850.71,4027.64,1863.59Z"/><path fill="#52add1" d="M2480.94,1769.68s440.72-92.27,475.15-92.27-85.05,31.7-85.05,31.7-146,39.13-245.33,76.71S2480.94,1769.68,2480.94,1769.68Z"/><path fill="#1ca3e5" d="M2835.06,1863.59H624.74c67.6-51.8,146.57-81.63,235.58-81.63,0-29.13,12-67.51,34.79-110.08,0,0,700.49-338.41,910.36-217.24s542.61,217.24,542.61,217.24Z"/><path fill="#f8877f" d="M1781.86,2284.67l43,121.4s291-14.87,329.53-14.87c47.74,47.75,6.52,91.41,6.52,91.41s-352.44,102.6-443.57,50-91.12-183.22-91.12-183.22l122.49-64.71Z"/><path fill="#02232b" d="M1748.74,3029.06c0,124.37-3.64,688.5-4.2,776.3-54.11-4.19-233.9-26.5-252.61-31.12-4.33-103.46-35.32-871.23-35.32-922.47V2736.09l90.91-22.46,143.23-35.38S1748.74,2894.08,1748.74,3029.06Z"/><path fill="#021418" d="M1528.46,2978.45s74.21,99.17,74.21,207.51V3443c0,36.73-19.35,341.56-19.35,341.56l-50.73-4Z"/><path fill="#023240" d="M1547.52,2711.3V3780.59c-23.18,13.77-370.62-93.27-420.46-126.55-37.75-192.79-105.67-567.65-90.82-700.35,20.33-181.8,65-294.72,65-294.72Z"/><path fill="#fe4775" d="M1482.93,1876s157.32,8.09,203.23,105.42,112,290.13,112,290.13-111.74,94.53-145.07,75.29S1482.93,1876,1482.93,1876Z"/><path fill="#dd1f56" d="M1612.7,2034.59s117.2,205.09,117.2,287.1c-84.14,61.8-89.35,56.29-89.35,47.11S1612.7,2034.59,1612.7,2034.59Z"/><path fill="#fe4775" d="M1273,1887.26s-71.51-19.1-121.57,3.62c-62.28,28.27-106.36,113.93-113.48,296.15-12.86,328.7,51.42,543.55,51.42,543.55s543.54,62.44,628-42.23c-20.2-251.58-43.15-783.18-164.35-810.73S1273,1887.26,1273,1887.26Z"/><path fill="#dd1f56" d="M1074 2666.74S1455.4 2596 1492 2596h73.62l-6.82-48.43-495.91 59.57zM1113.23 2122.73s43.15 134.71 43.15 212-5 151.14-5 151.14L1453.83 2499s-380 61.3-392 54.36-22-148.74-22-178.12 60.14-221.57 68.87-230.3S1113.23 2122.73 1113.23 2122.73z"/><path fill="#f8877f" d="M1441 1838.43l-3.67-75.29s69.78 1.84 100.07-54.17-53.25-293.81-147.82-281.87S1233.51 1502 1248.2 1632.55s14.69 184.76 14.69 184.76 54.17 99.79 103.75 99.79S1441 1838.43 1441 1838.43zM940.61 2466.15s-.44 133 51.64 163.08 525-49.23 525-49.23l-20.72-92.07s-368.52 18.86-375.87 18.86c-15.46-104.67-25.77-123.27-25.77-123.27z"/><path fill="#f8877f" d="M1450,2490.31s103-44.47,111.34-36.17,86.3,37.41,88.14,39.24-26.18,89.37-46.76,94.27-110.72-3.52-110.72-3.52Z"/><path fill="#fe4775" d="M1151.42,1890.88S974.59,1909.75,952.55,2053s-74.37,493.05-22,440.72c135-57.85,194.41-92.17,194.41-92.17s-12.17-166.56,0-206.59S1151.42,1890.88,1151.42,1890.88Z"/><path fill="#fff" d="M1198.41 1855.21l61.43-61.44s106.8 106.8 106.8 123.33-51.42 71.61-51.42 71.61S1180.76 1912.68 1198.41 1855.21zM1366.64 1917.1s64.27-88.77 70.7-107.13c34 51.42 45.59 66 45.59 66s-19.89 97.15-38.25 97.15S1366.64 1917.1 1366.64 1917.1z"/><path fill="#2a2038" d="M1311.55,1611.65s-36.73,25.89-18.36,60.23,43.15,23.32,43.15,23.32v27.54s-82.18,4.14-86.31,0-68.79-79-53.22-154.25,45-47.74,45-47.74-16.53-90,58.76-120.28,148.74,1.84,198.32-17.44,37.65,30.3,16.53,51.41-32.45,51.42-32.45,51.42,27.74,49.58-29.07,49.58C1447.44,1585,1367.56,1638.27,1311.55,1611.65Z"/><path fill="#302a29" d="M1535.27,2576.23l198.52-242.05a29.75,29.75,0,0,1,23.16-10.9l425.86,1.95c7.49,0,32.33,11.34,37.29,15.5,12,10-3.14,20.29-15,33.86l-206,236.2a29.79,29.79,0,0,1-22.17,10.21l-410.28,12c-4.89,0-17.41-9.08-21.32-11C1529,2614.15,1522.35,2592,1535.27,2576.23Z"/><path fill="#ffdfdb" d="M1557.62,2587.71l198.51-242.05a29.76,29.76,0,0,1,23.16-10.9l425.86,1.95c25.51.12,39.08,30.14,22.31,49.36l-206,236.2a29.75,29.75,0,0,1-22.17,10.2l-418.34,3.91C1555.65,2636.61,1541.59,2607.25,1557.62,2587.71Z"/><path fill="#f8877f" d="M2181.2,2456.81s-14.44,24.1-34.38,24.1-120.25-40.52-148.49,5.82c-10.35,17,10.15,56.05,14,74.25,6.63,31.47,43.86,31.69,61.67,31.69,28.1,0,79-39.36,113.49-73.81S2208.05,2430,2181.2,2456.81Z"/><path fill="#76ae28" d="M4899.51,1548.74a200.35,200.35,0,0,0,4.57-42.68c0-64.11-30-120.3-75.09-151.67,17.54-22.14,28.2-51.35,28.2-83.38,0-69.16-49.71-125.23-111-125.23s-111,56.07-111,125.23c0,32,10.66,61.24,28.2,83.38-44.73,31.14-74.63,86.73-75.08,150.24a110.18,110.18,0,0,0,119.46,174.22,140,140,0,0,0,19,4c17,40.8,55.81,69.3,100.95,69.3,60.85,0,110.18-51.8,110.18-115.69C4937.83,1601.38,4923,1570,4899.51,1548.74Z"/><path fill="#9fcd5f" d="M4726.17,1863.6V1617.16l-27.55-60.6,27.55,15.9V1362.37s15.15,44.07,15.15,70.24,9.42,52.33,9.42,77.12v56.47l37.29-37.29s-37.29,45.55-37.29,64.83,5.73,82.64,5.73,82.64,9.31,7.34,31.56-5.51,51.59-42.18,51.59-42.18-4.65,22.9-15.67,33.92-33.58,40.4-39.94,44.07-20.66,27.54-20.66,27.54V1863.6Z"/><path fill="#76ae28" d="M4337.59,1531.54a108.29,108.29,0,0,0,7.54-40c0-52.64-36.58-95.31-81.71-95.31s-81.72,42.67-81.72,95.31c0,2.23.09,4.44.22,6.63a118.44,118.44,0,1,0,155.67,33.36Z"/><path fill="#9fcd5f" d="M4241.38,1863.6V1688.77s-12.85-23-12.85-28.46v-8.26l19.41,11.21V1513.41s15.48,89.06,15.48,118.44v61.51s22-28.92,28.92-28.92,2.29,27.09-6.89,36.27-22,6.91-22,16.31-1.33,146.58-1.33,146.58Z"/><path fill="#fff" d="M2025.59 1158.91h483.23s-44.07-136.72-190.06-89.89C2300 950.07 2194.32 977.37 2144 1027.7c-26.3-52.33-73.92-42.93-73.92-42.93S2032.36 1061.49 2025.59 1158.91zM4117.59 1288.11H4660.8s-37.45-152.66-192.45-63.17c-9.91-139.19-204.19-119.42-204.19-28.12-63.06-63.07-100.36 17-63.06 38.58C4119.55 1215.3 4091 1261.57 4117.59 1288.11zM3592.62 724.71h441.63s7.34-122.57-93.2-49.58c0-74.37-92.81-80.83-107.69-23.2 0-89.9-123.68-82.85-123.68-29.14C3646.33 614.53 3549.92 644.83 3592.62 724.71z"/><rect width="35.48" height="67.7" x="3311.56" y="238.96" fill="#02232b" transform="rotate(-8.1 3376.681 243.779)"/><rect width="19.39" height="48.08" x="3090.75" y="219.88" fill="#02232b" transform="rotate(-8.74 3099.736 243.92)"/><rect width="493.05" height="41.1" x="2881.17" y="317.49" fill="#00a3cc" rx="11.75" transform="rotate(-8.1 3173.009 311.867)"/><rect width="262.98" height="21.45" x="2872.02" y="276.57" fill="#00a3cc" rx="6.13" transform="rotate(-8.74 3002.841 287.256)"/><ellipse cx="3321.3" cy="220.77" fill="#bde9ff" rx="144.97" ry="34.7" transform="rotate(-8.74 3320.588 220.785)"/><ellipse cx="3095.66" cy="212.81" fill="#bde9ff" rx="98.19" ry="23.5" transform="rotate(-8.74 3095.005 212.826)"/><rect width="35.48" height="67.7" x="2248.55" y="402.34" fill="#02232b" transform="rotate(171.26 2266.285 436.23)"/><rect width="19.39" height="48.08" x="2466.21" y="315.88" fill="#02232b" transform="rotate(171.26 2475.906 339.962)"/><rect width="493.05" height="41.1" x="2231.65" y="417.32" fill="#00a3cc" rx="11.75" transform="rotate(171.26 2478.173 437.913)"/><rect width="262.98" height="21.45" x="2449.9" y="341.45" fill="#00a3cc" rx="6.13" transform="rotate(171.26 2581.388 352.217)"/><ellipse cx="2258.29" cy="384.15" fill="#bde9ff" rx="144.97" ry="34.7" transform="rotate(-8.74 2257.767 384.118)"/><ellipse cx="2471.12" cy="308.8" fill="#bde9ff" rx="98.19" ry="23.5" transform="rotate(-8.74 2470.565 308.771)"/><rect width="96.03" height="144.19" x="2764" y="421.73" fill="#023240" rx="14.58" transform="rotate(-8.74 2811.412 493.752)"/><path fill="#fe4775" d="M2723.3,198.93h124.11a82.84,82.84,0,0,1,82.84,82.84v66.41a0,0,0,0,1,0,0H2640.46a0,0,0,0,1,0,0V281.77a82.84,82.84,0,0,1,82.84-82.84Z" transform="rotate(-8.74 2784.739 273.55)"/><path fill="#00a3cc" d="M2719.31,458,2613.13,551.7l-6.4,75.26-9.52,1.46c-12.46-17.72-6.76-78.14-6.76-78.14l88.88-99Zm184.44-28.35,129.41,57.45L3061.87,557l9.51-1.47c6.56-20.65-17-76.57-17-76.57l-114.51-67.72Z"/><path fill="#02232b" d="M3048,388.8c-52.8,15.46-103,24.47-157.13,33.49-96.6,18-189.33,36.06-285.93,23.18-17.33-2-36.25-5.71-51.7-15.45l1.53,10a61.66,61.66,0,0,0,70.3,51.58l378.55-58.19a61.65,61.65,0,0,0,50.49-46.11C3052.11,387.71,3050.08,388.22,3048,388.8Z"/><path fill="#023240" d="M2890.91,422.29c54.1-9,104.33-18,157.13-33.49,2-.58,4.07-1.09,6.11-1.55a61.38,61.38,0,0,0,1.08-24.19l-6.7-43.64a61.66,61.66,0,0,0-70.31-51.57L2599.67,326a61.66,61.66,0,0,0-51.57,70.31l5.18,33.68c15.45,9.74,34.37,13.41,51.7,15.45C2701.58,458.35,2794.31,440.32,2890.91,422.29Z"/><path fill="url(#a)" d="M2862.21,559.05l-16.61,2.55-37.88,5.82L2791.11,570,2239.8,1450.46c33.15,215.63,1445.83-1.5,1412.69-217.13Z" opacity=".7"/><g opacity=".3"><path fill="#fff" d="M2874.29 608.55c25.16 30.37 199.75 239 663.78 692.26C3325.57 1020 2856.34 586.41 2874.29 608.55zM2838.65 611.72c2.39 29.9 24.88 284.61 139.8 860.86-10.61-321.59-141.81-889.78-140-863.88C2838.42 608.7 2838.49 609.7 2838.65 611.72zM3234.72 1330.17c17.85 36.94 38.75 73.56 48.7 93zM2874.08 641.81l1.4 2.69C2875.46 644.42 2874.11 641.88 2874.08 641.81z"/><path fill="#fff" d="M3213.39 1281c-65.7-162.08-281-554.17-339-639.3 87.24 208.45 269.29 553.88 400.42 786.13C3255.31 1378.59 3234.8 1329.42 3213.39 1281zM2791.07 1429c-.88 4.72-2.68 14.19-3.59 18.9-1-.49-2 46.62-2.13 47.78 4.05-17.18 7.48-50.72 10.39-94.92C2794.35 1409.84 2792.63 1419.91 2791.07 1429zM2812 641.81l-.13 4.25A41 41 0 002812 641.81z"/><path fill="#fff" d="M2817.23 718.19c-2.57-48.38-4.93-76.38-4.93-76.38-25.14 254.08-12.09 575.66-36.52 851.63 7.11-20.68 11.26-43 15.29-64.43C2828.79 1203.53 2827.75 930 2817.23 718.19zM2771.09 666.6l-1.32 5.87A48.2 48.2 0 002771.09 666.6zM2593.21 1475.65c-2.06 4.23-4.17 8.41-6.41 12.45l-5.41 24.12c9-9 20.8-42 34.24-90.19C2608.84 1440.13 2601.56 1458.33 2593.21 1475.65zM2631.08 1303.47c17.16-78.64 30.22-142.53 44.75-212.24l-81.39 362.82C2608.73 1404.67 2620.37 1351.72 2631.08 1303.47z"/><path fill="#fff" d="M2769.77 672.47c-57.32 217.24-104.87 492.73-161.94 731.59-9.51 33.41-15.66 70.79-33.39 101.2 20.43-23.16 29.32-55 41.19-83.23 83.58-232.42 132.19-530.34 155.75-755.38C2771.27 667 2770.17 671 2769.77 672.47zM2739.42 720.81c-16 24.46-150.54 233.6-404 745.51 183.93-253.24 419.67-768.9 405.6-748C2741.05 718.35 2740.5 719.16 2739.42 720.81z"/></g><circle cx="2815.06" cy="402.65" r="15.4" fill="#67848c"/><circle cx="2891.8" cy="387.25" r="15.4" fill="#67848c"/><rect width="16.6" height="27.83" x="5225.35" y="765.44" fill="#02232b" transform="rotate(6.87 5236.377 779.934)"/><rect width="9.07" height="19.76" x="5129.22" y="731.22" fill="#02232b" transform="rotate(6.87 5136.433 741.625)"/><rect width="230.6" height="16.89" x="5019.56" y="773.01" fill="#00a3cc" rx="6.56" transform="rotate(6.87 5137.52 782.022)"/><rect width="122.99" height="8.82" x="5023.33" y="742.44" fill="#00a3cc" rx="3.42" transform="rotate(6.87 5087.54 747.402)"/><ellipse cx="5236.23" cy="757.86" fill="#bde9ff" rx="14.26" ry="67.8" transform="rotate(-83.13 5235.983 758.023)"/><ellipse cx="5135.3" cy="728.25" fill="#bde9ff" rx="9.66" ry="45.92" transform="rotate(-83.13 5135.06 728.41)"/><rect width="16.6" height="27.83" x="4725.96" y="705.24" fill="#02232b" transform="rotate(-173.13 4734.226 719.3)"/><rect width="9.07" height="19.76" x="4835.82" y="695.85" fill="#02232b" transform="rotate(-173.13 4840.324 705.882)"/><rect width="230.6" height="16.89" x="4714.42" y="736.22" fill="#00a3cc" rx="6.56" transform="rotate(-173.13 4829.685 744.823)"/><rect width="122.99" height="8.82" x="4825.03" y="718.54" fill="#00a3cc" rx="3.42" transform="rotate(-173.13 4886.49 723.097)"/><ellipse cx="4736.84" cy="697.66" fill="#bde9ff" rx="14.26" ry="67.8" transform="rotate(-83.13 4736.62 697.81)"/><ellipse cx="4841.9" cy="692.88" fill="#bde9ff" rx="9.66" ry="45.92" transform="rotate(-83.13 4841.676 693.035)"/><rect width="44.91" height="59.27" x="4951.32" y="776.3" fill="#023240" rx="14.58" transform="rotate(6.87 4976.387 806.491)"/><path fill="#fe4775" d="M4967.83,685.15h40.29a47.62,47.62,0,0,1,47.62,47.62V746.5a0,0,0,0,1,0,0H4920.2a0,0,0,0,1,0,0V732.78A47.62,47.62,0,0,1,4967.83,685.15Z" transform="rotate(6.87 4990.622 716.352)"/><path fill="#00a3cc" d="M4936.19,780.93l-59.09,24.52-11.86,29-4.47-.54c-3.51-8.46,6.25-31.65,6.25-31.65l51.92-28.66Zm86.65,10.44,51.58,37.87,4.64,31,4.47.54c5.42-7.38,1.44-32.23,1.44-32.23l-43.64-40.17Z"/><path fill="#02232b" d="M5092.85,792.16c-25.68-.1-49.44-2.43-74.93-5.22-45.76-4.21-89.78-8-131.86-24.39-7.58-2.84-15.68-6.51-21.5-12.16l-.49,4.1c-1.67,13.9,9.79,26.71,25.6,28.62l177.84,21.43c11.9,1.44,22.87-3.72,28.28-12.28C5094.82,792.2,5093.84,792.16,5092.85,792.16Z"/><path fill="#023240" d="M5017.92,786.94c25.49,2.79,49.25,5.12,74.93,5.22,1,0,2,0,2.94.1a22.53,22.53,0,0,0,3.37-9.43l2.17-18c1.67-13.9-9.79-26.71-25.6-28.62l-177.84-21.43c-15.81-1.91-30,7.81-31.65,21.71l-1.68,13.91c5.82,5.65,13.92,9.32,21.5,12.16C4928.14,779,4972.16,782.73,5017.92,786.94Z"/><path fill="url(#b)" d="M4988.68,837.58l-7.81-1-17.79-2.14-7.8-.94-353.76,283c-10.71,89,652.95,169,663.67,80Z" opacity=".7"/><g opacity=".3"><path fill="#fff" d="M4988.23 858.54c7.75 14.94 61.73 117.8 217.26 351.22C5143 1073.94 4982.77 847.69 4988.23 858.54zM4971.77 855.61c-2.49 12.09-22.66 115.3-39.39 356.32 33.5-128.23 41.92-368 39.64-357.54zM5065 1185.77c3.66 16.67 8.73 33.59 10.92 42.42zM4984.18 871.65s.11.42.31 1.23C4984.49 872.84 4984.19 871.68 4984.18 871.65z"/><path fill="#fff" d="M5061.27 1163.83c-10.37-71.7-60.87-251.78-77-292.21 14.57 92.55 55.63 250.3 87.18 357.39C5068.57 1207.3 5065.16 1185.48 5061.27 1163.83zM4853 1172.74c-.95 1.76-2.89 5.29-3.86 7-.42-.31-6.45 18.18-6.65 18.62 3.87-6.31 9.41-19.15 16-36.26C4856.73 1165.56 4854.75 1169.33 4853 1172.74zM4956.16 864.36l-.57 1.67A15.71 15.71 0 004956.16 864.36z"/><path fill="#fff" d="M4949.42 895.14c4.6-19.41 6.87-30.74 6.87-30.74-41.61 97.38-74 225.88-117.9 332 5.67-7.33 10.2-15.65 14.57-23.65C4896.84 1088.13 4929 980 4949.42 895.14zM4934.73 869.35l-1.29 2.17A19.23 19.23 0 004934.73 869.35zM4758.08 1168c-1.43 1.42-2.88 2.83-4.37 4.16l-5.32 8.89c5.11-2.48 14.39-14.14 26.2-31.6C4769.37 1155.75 4763.91 1162.08 4758.08 1168zM4795.68 1104.4c17.12-29 30.62-52.73 45.48-78.55l-79.95 133.71C4773.54 1141.74 4785.1 1122.2 4795.68 1104.4z"/><path fill="#fff" d="M4933.44 871.52c-51.75 79.05-106 182.25-160.23 269.87-8.27 12.08-15.5 26.12-27.13 36 12-6.75 19.79-18.29 28.51-28 65.41-82 122.83-193.9 160.26-280C4934.76 869.53 4933.79 871 4933.44 871.52zM4914 887c-10.16 7.78-95.79 74.58-271.16 247 113.2-78.42 281-254.37 272.19-247.76z"/></g><ellipse cx="4986.01" cy="770.29" fill="#67848c" rx="6.33" ry="7.2" transform="rotate(-83.08 4986.215 770.16)"/><ellipse cx="5022.49" cy="773.21" fill="#67848c" rx="6.33" ry="7.2" transform="rotate(-83.08 5022.69 773.081)"/><circle cx="1602.67" cy="859.73" r="189.51" fill="#bde9ff"/><path fill="#dd1f56" d="M1376.81,1945.28s98.94,367.08,92.66,470.86l11,28,8.26-8.26s-23.27-191.18-57-341.26c-13.13-58.35-14.92-123.4-36.85-149.29C1366.64,1917.1,1376.81,1945.28,1376.81,1945.28Z"/><path fill="#ea716e" d="M1437.34,1763.14s-66.11-6.75-70.7-26c12.85,49.58,72.19,56.66,72.19,56.66Z"/><path fill="#021418" d="M1137.1,3020.69s94.54-44.07,109.7-119.36c26.19,0,26.19,7.35,26.19,7.35s7.66,113.53-124.72,124.71Z"/><path fill="#fff" d="M4504.89,1041.15h308.5s-25-84.86-90.9-46.83c-18.36-69.78-80.79-37.64-80.79,1.84-44.07-71.62-72.54-8.27-67,11.93C4540.23,970,4502.15,998.16,4504.89,1041.15Z"/><path fill="#69a31a" d="M5091 2516.53c14.46 95.7 21.35 192.31 22.11 288.95 1.14 142.24-11 284.52-31.8 423.94l-9 11q-4.73 3.16-9.5 6.29c21.37-147.41 37.15-301.31 36-454.27-1.34-187.62-28.07-373.85-101-545a57.83 57.83 0 0013.35-8C5051.25 2326.14 5075.82 2420.87 5091 2516.53zM5160.29 2881.68c-86.87 88.25-5.7 194.53 83.32 109.11C5330.48 2902.55 5249.31 2796.26 5160.29 2881.68zM5146 2684.32c-64.69 79.85 24.69 177.49 91.62 100.09C5302.28 2704.56 5212.89 2606.92 5146 2684.32zM5209.06 2424.45c-32.79-.85-62.6 25.71-80.42 55.48-24.1 37.47-17.72 91.35 32.08 82.69 28-5 55.39-29.81 69.62-58C5246.53 2475.82 5248.4 2425.39 5209.06 2424.45z"/><path fill="#69a31a" d="M5159.59 2237.84c-41.35-23.49-87.5 11-101.47 56.41-21.65 64.51 29.76 93.22 75.78 66C5166.74 2340.63 5201 2268.2 5159.59 2237.84zM5011.24 2239.32c36.17-27.38 27.28-93.57-8.81-118.23-39.07-29.92-87.28 2.8-92.11 52.45C4900.81 2237.32 4968.92 2273.59 5011.24 2239.32zM5020.1 2379.23c11.59-79.44-132-110.77-143.66-31.36S5008.4 2458.64 5020.1 2379.23zM4974.38 2595.69c20.51 14.72 49.8 20.41 72.59 12.35 29.58-8.56 44-43.39 21.16-71.24-26.36-32.58-75.27-44.17-108.08-20.71C4931.43 2537.44 4948.88 2579.82 4974.38 2595.69zM5030.86 2793.7c39.45 17.21 80.5-8.19 58.16-58.24-18-42.07-83.23-88.89-117.82-51.7-14.29 18.36-4.63 51 9.94 70.4C4993 2771.2 5012.84 2787 5030.86 2793.7zM5094.26 2950.53c-5.58-33.42-30.54-62.56-56.64-78.17-34.24-22.32-80.45-11.16-67.75 42.84 7.31 30.83 32.18 59.56 57.83 72.66C5058.36 3005.78 5101.64 2995.88 5094.26 2950.53z"/><path fill="#f0f44d" d="M4810.08,2977.92s-123.61,30.2-159.84-55.22C4720.52,2864,4810.08,2977.92,4810.08,2977.92Z"/><path fill="#f0f44d" d="M4778.51 2894.91s-127.41 25.59-155.89-90.15c29.68-13.08 68.3-3.6 97.81 19.65C4755.14 2851.76 4778.51 2894.91 4778.51 2894.91zM4750.45 2780.57s-127.42 25.58-155.89-90.15c29.68-13.08 68.3-3.6 97.8 19.65C4727.07 2737.42 4750.45 2780.57 4750.45 2780.57zM4736.24 2683.17s-127.42 25.59-155.89-90.15c29.68-13.08 68.3-3.6 97.81 19.65C4712.87 2640 4736.24 2683.17 4736.24 2683.17zM4800.16 2978.61s123.52-30.54 116-123C4826.72 2836.18 4800.16 2978.61 4800.16 2978.61z"/><path fill="#f0f44d" d="M4789.65 2890.42S4914.41 2854 4886 2738.28c-32.37 2.17-62.19 28.47-77.56 62.75C4790.35 2841.35 4789.65 2890.42 4789.65 2890.42zM4761.51 2776.1s124.76-36.39 96.34-152.14c-32.36 2.17-62.19 28.47-77.56 62.75C4762.22 2727 4761.51 2776.1 4761.51 2776.1z"/><path fill="#f0f44d" d="M4729,2683.21s124.76-36.39,96.34-152.14c-32.37,2.17-62.19,28.47-77.56,62.75C4729.66,2634.14,4729,2683.21,4729,2683.21Z"/><path fill="#f0f44d" d="M4961.06,3234c-114.83-148.72-174.36-309.21-205.16-438.55S4723,2567.94,4723,2544c0-1.86,0-3.27,0-4.21,0-.47,0-.83,0-1.06s0-.21,0-.26v-.08a4,4,0,0,0-8-.21h0s-.05,2-.05,5.82c0,24.38,2.09,123.12,33.09,253.27s90.89,291.7,206.6,441.58a4,4,0,0,0,6.34-4.89Z"/><path fill="#f0f44d" d="M4724.18 2613.2s-95.55-111.72 3.5-206.47C4768.23 2496.22 4744.94 2607.55 4724.18 2613.2zM2795 3384.48s-110.06 26.89-142.33-49.17C2715.23 3283.07 2795 3384.48 2795 3384.48z"/><path fill="#f0f44d" d="M2766.87 3310.56s-113.45 22.79-138.81-80.26c26.43-11.65 60.82-3.21 87.09 17.49C2746.06 3272.14 2766.87 3310.56 2766.87 3310.56zM2741.88 3208.75s-113.45 22.79-138.81-80.26c26.43-11.65 60.82-3.21 87.09 17.49C2721.07 3170.33 2741.88 3208.75 2741.88 3208.75zM2729.23 3122s-113.45 22.79-138.81-80.26c26.43-11.65 60.82-3.21 87.09 17.49C2708.42 3083.6 2729.23 3122 2729.23 3122zM2786.14 3385.1s110-27.2 103.32-109.55C2809.79 3258.27 2786.14 3385.1 2786.14 3385.1z"/><path fill="#f0f44d" d="M2776.78 3306.57s111.09-32.41 85.79-135.47c-28.82 1.93-55.38 25.35-69.06 55.87C2777.41 3262.88 2776.78 3306.57 2776.78 3306.57zM2751.73 3204.77s111.09-32.4 85.78-135.46c-28.81 1.93-55.37 25.34-69.05 55.87C2752.36 3161.08 2751.73 3204.77 2751.73 3204.77zM2722.74 3122.06s111.09-32.4 85.78-135.46c-28.82 1.93-55.37 25.34-69.06 55.87C2723.37 3078.37 2722.74 3122.06 2722.74 3122.06z"/><path fill="#f0f44d" d="M2929.76,3612.21c-102.2-132.36-155.19-275.2-182.6-390.32s-29.26-202.49-29.25-223.76c0-1.66,0-2.91,0-3.75,0-.42,0-.73,0-.94a2.2,2.2,0,0,0,0-.23v-.07a4,4,0,0,0-8-.21h0s0,1.82,0,5.2c0,21.73,1.86,109.68,29.47,225.61s81,259.84,184,393.36a4,4,0,0,0,6.33-4.89Z"/><path fill="#f0f44d" d="M2718.49 3059.73s-85.08-99.48 3.11-183.85C2757.71 2955.56 2737 3054.69 2718.49 3059.73zM5275.05 2735.27s100.73 24.61 130.26-45C5348 2642.46 5275.05 2735.27 5275.05 2735.27z"/><path fill="#f0f44d" d="M5300.78 2667.62s103.83 20.85 127-73.45c-24.19-10.66-55.65-2.94-79.7 16C5319.83 2632.46 5300.78 2667.62 5300.78 2667.62zM5323.65 2574.45s103.83 20.85 127-73.46c-24.19-10.66-55.65-2.94-79.7 16C5342.69 2539.29 5323.65 2574.45 5323.65 2574.45zM5335.23 2495.08s103.83 20.85 127-73.46c-24.19-10.66-55.66-2.94-79.7 16C5354.27 2459.92 5335.23 2495.08 5335.23 2495.08zM5283.14 2735.83s-100.66-24.89-94.56-100.25C5261.5 2619.77 5283.14 2735.83 5283.14 2735.83z"/><path fill="#f0f44d" d="M5291.7 2664s-101.66-29.66-78.5-124c26.37 1.77 50.67 23.2 63.2 51.13C5291.13 2624 5291.7 2664 5291.7 2664zM5314.63 2570.81s-101.66-29.66-78.5-124c26.37 1.77 50.67 23.2 63.2 51.13C5314.06 2530.82 5314.63 2570.81 5314.63 2570.81zM5341.17 2495.11s-101.67-29.65-78.51-124c26.37 1.77 50.68 23.19 63.2 51.13C5340.59 2455.13 5341.17 2495.11 5341.17 2495.11z"/><path fill="#f0f44d" d="M5353.21,2376.93a4,4,0,0,0-8,.2h0v.07c0,.31,0,1.84,0,4.49,0,19.45-1.68,99.38-26.76,204.7s-73.56,236-167.05,357.09a4,4,0,1,0,6.33,4.89c94.38-122.25,143.22-254,168.5-360.13s27-186.65,27-206.55C5353.25,2378.59,5353.21,2377,5353.21,2376.93Z"/><path fill="#f0f44d" d="M5345.05,2438.06s77.87-91-2.85-168.25C5309.16,2342.73,5328.13,2433.45,5345.05,2438.06Z"/><path fill="#fff" d="M1898 3520.39V3814c-30.65-2.14-57.21-4.41-75.49-6.09v-287.5zM2053.06 3361.58V3820c-24.45.08-50.17-.55-75.49-1.58V3361.58zM2209.88 3250.47v557.79c-29.35 3.12-55.34 5.82-75.49 7.86V3250.47zM2351 3315.48v477.57c-25.35 2.76-50.86 5.52-75.49 8.18V3315.48zM2518.41 3178.69v596c-21.76 2.41-47.55 5.26-75.5 8.32V3178.69z"/><path fill="#fff" d="M2500.84,3029.85a5,5,0,0,0-7.07,0L2324.66,3199l-146.47-54.87a5,5,0,0,0-4.74.68l-160.74,119.8-192.39,92.5a5,5,0,1,0,4.33,9h0l192.83-92.71a5.8,5.8,0,0,0,.82-.5l158.94-118.46,146.93,55.05a5,5,0,0,0,5.29-1.15l171.38-171.39A5,5,0,0,0,2500.84,3029.85Z"/><circle cx="1845.73" cy="3361.75" r="30.74" fill="#fff"/><circle cx="2015.31" cy="3268.86" r="30.74" fill="#fff"/><circle cx="2172.14" cy="3147.95" r="30.74" fill="#fff"/><circle cx="2320.3" cy="3210.89" r="30.74" fill="#fff"/><circle cx="2497.31" cy="3036.49" r="30.74" fill="#fff"/><path fill="#f0f44d" d="M2838.93 3699.5s34.16-100.24-56.33-135.5c-13.71 22.6-10.15 54.8 5.52 81.11C2806.54 3676.05 2838.93 3699.5 2838.93 3699.5zM2749.51 3664.72s34.17-100.24-56.32-135.5c-13.71 22.6-10.15 54.8 5.51 81.1C2717.12 3641.27 2749.51 3664.72 2749.51 3664.72zM2672.32 3642.92s34.17-100.23-56.32-135.5c-13.72 22.6-10.15 54.81 5.51 81.11C2639.93 3619.47 2672.32 3642.92 2672.32 3642.92zM2834.12 3708S2791.51 3805 2701 3769.76c5.18-25.92 29.58-47.24 58.91-56C2794.4 3703.4 2834.12 3708 2834.12 3708zM2744.73 3673.19s-42.61 96.94-133.12 61.72c5.18-25.91 29.58-47.23 58.91-56C2705 3668.56 2744.73 3673.19 2744.73 3673.19z"/><path fill="#f0f44d" d="M2673.13,3637S2630.51,3734,2540,3698.77c5.18-25.92,29.59-47.23,58.91-56C2633.41,3632.41,2673.13,3637,2673.13,3637Z"/><path fill="#f0f44d" d="M2740.56,3654.24c-106-37.54-182.64-45.61-182.93-45.64a5.15,5.15,0,1,0-1.07,10.25h0l.19,0c4.36.47,81.11,9.34,185.31,46.85a1024.62,1024.62,0,0,1,118.41,51.2l16.7-3A1034.87,1034.87,0,0,0,2740.56,3654.24Z"/><path fill="#f0f44d" d="M2617.07,3625.77s-80.15-89-167.2-19C2517.88,3649,2610.3,3642,2617.07,3625.77Z"/><path fill="#417300" d="M4927.24,3180.45s2.54-87.39,56.36-184.17c94.54,54.58,134.26,215.3,134.26,215.3s-79.73,43-88.1,38.65S4927.24,3180.45,4927.24,3180.45Z"/><path fill="#69a31a" d="M5090.84,3225.34A1358.53,1358.53,0,0,1,4963.15,3280q-10.2,3.79-20.5,7.47-27.8,9.9-56.28,18.93c-39.06,12.4-79,23.61-119.49,33.73-195.29-105.42-596.95-371.36-595.18-774.87,98.37,78.89,280.38,210.79,458.63,337.43C4828.46,3043.45,5022,3177.67,5090.84,3225.34Z"/><path fill="#bcd845" d="M4956.79,3277.42c2.14.89,4.27,1.76,6.36,2.61q-10.2,3.79-20.5,7.47c-27.94-9.56-58.45-21.23-90.7-35.33-20.58-9-41.87-19-63.62-30.09-29.82-15.18-60.47-32.42-91.37-51.75-15.48-9.62-30.91-19.91-46.43-30.56-7.69-5.41-15.47-10.86-23.17-16.49s-15.45-11.32-23.07-17.26c-15.41-11.68-30.18-23.79-44.63-35.84-14.31-12.23-28.31-24.4-41.61-36.83-26.81-24.69-51.41-49.8-74-74.44a1234.86,1234.86,0,0,1-109.86-139.17,1042,1042,0,0,1-61.42-102.22c-13-25-18.91-39.36-18.91-39.36s7.47,13.64,22.69,37.14,38.16,56.91,69,96.16a1538.6,1538.6,0,0,0,115.71,131.11c23.16,23.33,48.05,47.2,74.84,70.85,13.31,11.9,27.22,23.61,41.37,35.42,14.3,11.65,28.83,23.42,43.91,34.86,7.47,5.82,15.07,11.37,22.55,17s15.07,10.93,22.55,16.33c15.09,10.6,30,20.93,45,30.66,29.87,19.59,59.38,37.42,88,53.48q15.52,8.71,30.7,16.73C4876,3242.16,4919,3261.87,4956.79,3277.42Z"/><path fill="#588a16" d="M4858.74,3304.09l-49.67,25.07c-126.47,34.4-259.69,57.63-389.72,73-100-43.43-221-133.38-289-319.63C4344.78,2941.15,4858.74,3304.09,4858.74,3304.09Z"/><path fill="#c4dd5d" d="M4684.67,3359.12q-26.9,5.72-54,10.84-2.76-.59-5.53-1.21a766,766,0,0,1-138.42-44.91l-8.88-3.82-8.7-4.07-17.2-8.14-16.65-8.61-8.2-4.27c-2.71-1.44-5.36-3-8-4.47l-15.75-8.93c-5.15-3-10.17-6.17-15.18-9.21l-7.45-4.57c-2.47-1.51-4.84-3.14-7.25-4.7q-7.17-4.71-14.17-9.34c-18.4-12.7-35.57-25.18-51-37.72-7.82-6.11-15-12.43-22.08-18.34-3.47-3-6.82-6-10.12-9s-6.5-5.8-9.56-8.71l-9-8.43q-4.29-4.22-8.35-8.21c-5.44-5.26-10.32-10.49-15-15.27-9.12-9.76-16.81-18.3-22.82-25.52s-10.56-12.9-13.54-16.83c-2.81-3.68-4.27-5.8-4.45-6,.19.18,2,2,5.37,5.22,3.55,3.4,8.84,8.35,15.82,14.54s15.64,13.58,25.79,22c5.16,4.12,10.57,8.64,16.51,13.19l9.1,7.08,9.68,7.3c3.28,2.51,6.72,5,10.24,7.54s7.07,5.16,10.75,7.78c7.45,5.11,15.05,10.62,23.19,15.94,16.05,10.94,33.69,21.86,52.33,33.1l14.29,8.3c2.43,1.39,4.81,2.86,7.28,4.2l7.46,4.08c5,2.73,10,5.56,15.12,8.31l15.6,8.1c2.62,1.35,5.24,2.77,7.9,4.09s5.38,2.62,8.08,3.94l16.32,8,16.77,7.67c2.81,1.3,5.61,2.6,8.45,3.9l8.61,3.67a1088.36,1088.36,0,0,0,132.95,47.76C4649.68,3350.7,4667.6,3355.23,4684.67,3359.12Z"/><path fill="#588a16" d="M5483.24,2787.49q-4,14.79-8.45,29.77c-25.75,87.5-71.21,162.75-131.41,227.42-63.76,68.49-144.06,125.11-235,171.84-2.93-46.4-7.2-212.05,66.29-358.84,50-99.9,136-191,282.91-229.93A506.42,506.42,0,0,1,5483.24,2787.49Z"/><path fill="#c4dd5d" d="M5435.39,2735.11c-.32.36-5.63,6.2-15,16.21l-7.61,9.09-4.37,5.15c-.74.9-1.53,1.79-2.29,2.74s-1.49,2-2.27,3l-9.86,12.84c-.89,1.11-1.74,2.29-2.59,3.52s-1.71,2.44-2.59,3.68l-5.38,7.64a801.78,801.78,0,0,0-46.81,77.16c-16.2,30.14-32.71,64.23-48.72,101-.61,1.38-1.2,2.76-1.8,4.12-15.36,35.24-29.19,69.43-41.25,101.05-9.37,24.5-17.79,47.4-25.11,68q-9.65,6.66-19.55,13.11c5.65-26.92,13.38-58.51,23.67-92.72a953.48,953.48,0,0,1,39.95-109.36c.47-1.07.94-2.14,1.42-3.21a710.14,710.14,0,0,1,52.16-97.49,514.39,514.39,0,0,1,55.6-72.21c2.22-2.34,4.38-4.59,6.5-6.8l3.11-3.25c1-1.08,2.05-2.13,3.12-3.09,4.2-3.92,8.17-7.6,11.87-11.07.93-.85,1.85-1.68,2.75-2.52s1.85-1.55,2.74-2.29l5.23-4.29,9.14-7.42C5428.63,2739.69,5435,2735.37,5435.39,2735.11Z"/><path fill="#69a31a" d="M3634.89 2944.35a69.55 69.55 0 01-16.5-4.36c-95.39 302.11-333 533.34-579.64 723.88l39.62-8C3244 3525.88 3395.51 3375.87 3513 3201 3565.28 3121.73 3609.16 3036 3634.89 2944.35zM3399.27 3540c-28.93 13.72-132.48 56.41-168.64 71.27-26.57-42.1 5.08-101.1 92.17-99.19C3358 3513.82 3383.4 3524.84 3399.27 3540z"/><path fill="#69a31a" d="M3444.74 3361.35c-107.7 7.88-99.89 144.45 8 140C3560.44 3493.48 3552.62 3356.9 3444.74 3361.35zM3673.17 3224.64c-26.58-25.31-69.26-28.93-104.21-21.25-45.35 8.41-76.59 51.42-29.49 82.79 26.61 17.53 66.07 20.6 96.94 11.37C3669.36 3289.3 3705.1 3255 3673.17 3224.64zM3758.72 3055.07c-18.3-47.81-79.92-58.09-122.25-36.46-61.65 29.43-38.56 88.52 18 103.88C3695 3133.33 3772.45 3107.81 3758.72 3055.07zM3634.89 2944.35c48.52 7.84 86-45.79 72.87-90.47-12.07-50.64-74.16-63.77-111.82-32.2C3544.83 2859.74 3576.63 2936.76 3634.89 2944.35zM3547.38 3050.22c63.45-47.59-34.15-177.95-97.68-130.47S3483.86 3097.71 3547.38 3050.22zM3362.77 3169.24c7 25.89 27.39 52 51.72 63.45 30.3 16.22 65.89 2.42 65.82-34.57.27-42.95-32.37-88-75.44-96.11C3366.7 3095.59 3352.42 3138.78 3362.77 3169.24zM3275.29 3352.19c21 41.92 72.2 54.83 87.64 2.53 13.6-43.41-8.65-125.74-62.5-125.43-24.28 2.26-38.44 32.7-39.51 57.4C3259.16 3307.67 3264.91 3333.87 3275.29 3352.19zM3221.45 3511.15c18-27.9 17.13-67.37 6.1-98.1-13.22-41.62-59-68.53-85.14-20.67-14.85 27.37-13.73 66.47-1.38 95.09C3154.27 3523.26 3196.81 3548.86 3221.45 3511.15zM2951.52 3696.25l-13.55 3.27q-20.29-24.45-41.33-48.33C2775.89 3514.44 2636 3396 2469.79 3352.38a58 58 0 002-12.55c61 13.65 119.13 41.19 173.47 75.36 92.91 59.65 177.19 135.36 253.81 220.17Q2925.91 3665.11 2951.52 3696.25zM2857.71 3538.22c5.05 98.35 94.16 93.76 91.48-4.71C2944.14 3435.17 2855 3439.76 2857.71 3538.22z"/><path fill="#69a31a" d="M2753.19 3456.42c10.79 79.79 99.27 65.75 90.71-14.38C2833.11 3362.27 2744.63 3376.3 2753.19 3456.42zM2652.2 3294.44c-15.08 21.32-15.2 53.35-8.36 78.93 7.86 33.28 37.5 54 55.44 17 10-20.89 9.94-50.47 2.31-72.91C2694.48 3293.39 2670.25 3268.82 2652.2 3294.44zM2537.32 3240.89c-30.16 16.52-33.61 63.05-17.3 93.29 22.39 44.17 59.64 23.41 66.67-19.67C2591.62 3283.69 2570.93 3227.49 2537.32 3240.89zM2471.76 3339.82c2.55-36.62-34.32-61.34-62.72-48.85-32.33 12-37.61 59.1-15.08 85.26C2421.42 3412 2469.88 3383.7 2471.76 3339.82zM2545.27 3398.66c-34.31-44.41-114 36.16-79.78 80.64S2579.52 3443.14 2545.27 3398.66zM2632.45 3529.06c16.48-6.77 32.4-23.54 38.58-42.36 9-23.55-1.89-49.24-26-47-28 2.39-55.6 29.42-58.6 62C2584.3 3530.56 2613.17 3538.61 2632.45 3529.06zM2756.13 3583.24c26.18-18.16 31.9-57.1-3-65.45-29-7.53-81.38 14-78.36 54.11 2.75 18 23.31 26.67 39.44 26C2728 3597.94 2744.75 3592.08 2756.13 3583.24zM2862.43 3613.8c-19.1-11.77-44.75-8.72-64.17 1.35-26.4 12.35-41.5 48.12-9 64.68 18.59 9.42 44 6.24 62-4.69C2873.85 3663.13 2888.28 3629.88 2862.43 3613.8z"/><path fill="#588a16" d="M3133,3645.38q-51.63,16.53-110.26,32.63-12,3.25-24.27,6.51-33.83,9-70,17.62a701.07,701.07,0,0,1-25.22-95c-17.8-92.82-22.42-221.67,49.54-325.25,25.67-36.94,61.07-70.65,109.1-98.38C3164.43,3399.07,3154.84,3557,3133,3645.38Z"/><path fill="#c4dd5d" d="M3048.51,3274c-.22,1-7.61,32.9-15.18,84.19-3.8,26-7.78,57.05-10.65,91.49-1.6,17.22-2.62,35.31-3.67,54-.18,4.69-.38,9.4-.56,14.17-.1,2.38-.2,4.76-.31,7.16s-.1,4.82-.16,7.22q-.18,7.24-.36,14.61c-.1,4.89-.06,9.83-.11,14.79a1041.34,1041.34,0,0,0,5.27,116.34q-12,3.25-24.27,6.51c-.48-2.55-1-5.12-1.48-7.71-.4-2.19-.86-4.39-1.21-6.61s-.68-4.47-1-6.72q-1-6.78-2-13.69c-.75-4.61-1.12-9.31-1.68-14s-1-9.51-1.49-14.34c-.34-4.83-.69-9.69-1-14.61s-.73-9.88-.82-14.88c-.29-10-.71-20.16-.51-30.42,0-5.13,0-10.24.2-15.3s.42-10.09.63-15.08c.11-2.5.19-5,.36-7.46s.36-4.94.54-7.38c.39-4.91.76-9.76,1.13-14.59,1.92-19.23,4.18-37.73,7.23-55.21a764.58,764.58,0,0,1,21.2-91.56c7.58-25.62,15.17-45.88,20.72-59.71C3044.7,3281.83,3048.29,3274.46,3048.51,3274Z"/><path fill="#fff" d="M2654.89,1981.33c-52.57-87.41-120-156.46-200.15-205.62s-172.81-78.43-275.75-86.47c-19.91-1.55-39.24-2.23-57.81-2.23-117.95,0-205.27,27.28-216.4,30.92a4,4,0,1,0,2.49,7.6h0c10.6-3.47,97.2-30.52,213.91-30.52,18.37,0,37.5.67,57.19,2.21,101.82,8,193.23,36.85,272.19,85.31S2596.06,1899,2648,1985.45a4,4,0,1,0,6.86-4.12Z"/><path fill="#fff" d="M2401.75,1873.54c-68.36-41.61-147-66-233.37-72.7-16.86-1.31-33.23-1.88-49-1.88-100.82,0-175.42,23.38-184.4,26.31a4,4,0,0,0,2.49,7.6h0c8.44-2.76,82.33-25.91,181.91-25.91,15.54,0,31.71.57,48.35,1.86,85.27,6.63,162.61,30.65,229.83,71.55s124.33,98.7,169.06,173.06a4,4,0,1,0,6.85-4.12C2528.18,1973.93,2470.11,1915.13,2401.75,1873.54Z"/><path fill="#fff" d="M2348.75 1971.35c-56.62-34-121.17-53.52-191-58.91-13.81-1.06-27.23-1.53-40.13-1.53-83.69 0-145.59 19.48-152.39 21.7a4 4 0 102.48 7.6h0c6.28-2.06 67.46-21.3 149.91-21.3 12.71 0 25.92.46 39.51 1.51 68.72 5.3 132 24.45 187.48 57.79s103.16 80.89 140.63 143.2a4 4 0 106.86-4.12C2454 2054 2405.37 2005.38 2348.75 1971.35zM2295.74 2069.17c-44.88-26.47-95.35-41.07-148.59-45.13-10.76-.82-21.21-1.17-31.27-1.17-66.58 0-115.76 15.57-120.4 17.08a4 4 0 102.49 7.6h0c4.11-1.35 52.58-16.69 117.91-16.69 9.87 0 20.12.35 30.67 1.15 52.17 4 101.4 18.26 145.13 44s82 63.08 112.2 113.33a4 4 0 106.85-4.13C2379.88 2134 2340.62 2095.63 2295.74 2069.17zM2242.71 2167c-33.15-18.9-69.52-28.6-106.17-31.34-7.72-.57-15.21-.82-22.43-.82-49.46 0-85.93 11.68-88.39 12.48a4 4 0 002.48 7.6h0c1.94-.64 37.71-12.08 85.91-12.08 7 0 14.33.25 21.83.8 35.66 2.66 70.83 12.08 102.8 30.31s60.79 45.27 83.75 83.45a4 4 0 006.86-4.13C2305.73 2214 2275.85 2185.86 2242.71 2167zM2217.21 2283.82a143 143 0 00-53.21-29.64 176.28 176.28 0 00-51.67-7.42c-32.34 0-56.12 7.79-56.38 7.86a4 4 0 002.49 7.61h0c.13-.05 23.09-7.48 53.89-7.47 20.19 0 43.71 3.18 66.46 13.56a133.16 133.16 0 0133.12 21.5 150.41 150.41 0 0129.2 35.52 4 4 0 106.85-4.12A158.28 158.28 0 002217.21 2283.82z"/><rect width="50.83" height="109.14" x="3081.44" y="2748.2" fill="#02232b" rx="13.31"/><polygon fill="#8bba4a" points="3188.47 2708.72 3098.77 2734.09 3098.77 2775.72 3114.27 2775.72 3114.27 2751 3188.47 2727.58 3188.47 2708.72"/><rect width="50.83" height="109.14" x="3447.73" y="2748.2" fill="#02232b" rx="13.31"/><polygon fill="#8bba4a" points="3392.23 2708.72 3481.93 2734.09 3481.93 2775.72 3466.43 2775.72 3466.43 2751 3392.23 2727.58 3392.23 2708.72"/><polygon fill="#405c19" points="3178.81 2572.05 3157.17 2761.19 3415.79 2759.39 3382.16 2570.25 3178.81 2572.05"/><polygon fill="#8bba4a" points="3198.43 2517.94 3180.73 2672.61 3392.23 2671.14 3364.72 2516.47 3198.43 2517.94"/><polygon fill="#1ca3e5" points="3353.6 2483.11 3210.94 2484.37 3195.76 2617.06 3377.2 2615.79 3353.6 2483.11"/><rect width="41.86" height="84.85" x="3122.69" y="2580.87" fill="#02232b" rx="13.31"/><rect width="41.86" height="84.85" x="3405.87" y="2580.87" fill="#02232b" rx="13.31"/><polygon fill="#1c2a07" points="3178.81 2572.05 3198.43 2517.94 3180.73 2674.56 3157.17 2761.19 3178.81 2572.05"/><polygon fill="#1c2a07" points="3392.23 2671.14 3415.79 2759.39 3382.16 2570.25 3364.72 2516.47 3392.23 2671.14"/><path fill="#8bba4a" d="M3509.25 2785.91v-16.59a22.77 22.77 0 00-22.77-22.77h-26.66a22.78 22.78 0 00-22.78 22.77v16.59c0 .77.05 1.53.12 2.28h72C3509.21 2787.44 3509.25 2786.68 3509.25 2785.91zM3449.41 2604v-11.51a15.8 15.8 0 00-15.8-15.79h-18.5a15.79 15.79 0 00-15.79 15.79V2604c0 .53 0 1.06.08 1.58h49.93C3449.38 2605 3449.41 2604.51 3449.41 2604zM3149.52 2785.91v-16.59a22.78 22.78 0 00-22.77-22.77h-26.67a22.77 22.77 0 00-22.77 22.77v16.59c0 .77 0 1.53.11 2.28h72A21.48 21.48 0 003149.52 2785.91z"/><polygon fill="#8bba4a" points="3431.91 2583.27 3380.68 2568.78 3383.8 2583.9 3420.68 2595.54 3420.68 2600.37 3431.91 2599.67 3431.91 2583.27"/><path fill="#8bba4a" d="M3118.46,2604v-11.51a15.8,15.8,0,0,1,15.8-15.79h18.5a15.79,15.79,0,0,1,15.79,15.79V2604a13.82,13.82,0,0,1-.08,1.58h-49.93C3118.49,2605,3118.46,2604.51,3118.46,2604Z"/><polygon fill="#8bba4a" points="3135.96 2583.27 3187.2 2568.78 3184.07 2583.9 3147.2 2595.54 3147.2 2600.37 3135.96 2599.67 3135.96 2583.27"/><polygon fill="#d2edfa" points="3314.08 2483.46 3203.64 2548.18 3201.68 2565.37 3344.01 2483.19 3314.08 2483.46"/><polygon fill="#d2edfa" points="3364.52 2544.51 3241.27 2616.74 3269.47 2616.54 3367.29 2560.07 3364.52 2544.51"/><rect width="32.36" height="69.47" x="4093.69" y="2160.98" fill="#02232b" rx="12.56"/><polygon fill="#8bba4a" points="4049.64 2138.32 4106.75 2154.47 4106.75 2180.97 4096.88 2180.97 4096.88 2165.23 4049.64 2150.32 4049.64 2138.32"/><path fill="#8bba4a" d="M4132.86,2185v-10.56a14.5,14.5,0,0,0-14.5-14.5h-17a14.5,14.5,0,0,0-14.49,14.5V2185c0,.49,0,1,.07,1.45h45.82A13.94,13.94,0,0,0,4132.86,2185Z"/><rect width="26.65" height="54.01" x="4015.81" y="2070.12" fill="#02232b" rx="10.34"/><path fill="#8bba4a" d="M4043.52,2084.84v-7.33a10.05,10.05,0,0,0-10.05-10.05h-11.78a10.05,10.05,0,0,0-10.05,10.05v7.33a8.27,8.27,0,0,0,.05,1h31.78C4043.5,2085.51,4043.52,2085.18,4043.52,2084.84Z"/><polygon fill="#8bba4a" points="4032.39 2071.66 3999.77 2062.43 4001.76 2072.05 4025.23 2079.46 4025.23 2082.54 4032.39 2082.09 4032.39 2071.66"/><polygon fill="#405c19" points="3877.47 2086.76 3922.26 2197.7 4086.89 2196.55 4071.89 2140.37 4006.91 2085.61 3877.47 2086.76"/><polygon fill="#8bba4a" points="3889.96 2052.31 3937.26 2141.31 4071.89 2140.37 3995.81 2051.37 3889.96 2052.31"/><rect width="26.65" height="54.01" x="3844.02" y="2082.91" fill="#02232b" rx="10.34"/><polygon fill="#1c2a07" points="3877.47 2086.76 3889.96 2052.31 3937.26 2142.55 3922.26 2197.7 3877.47 2086.76"/><path fill="#8bba4a" d="M3841.33,2097.62v-7.32a10.06,10.06,0,0,1,10.06-10.05h11.77a10.05,10.05,0,0,1,10.06,10.05v7.32c0,.34,0,.68,0,1h-31.79C3841.35,2098.3,3841.33,2098,3841.33,2097.62Z"/><polygon fill="#8bba4a" points="3852.47 2084.44 3885.09 2075.22 3883.1 2084.84 3859.62 2092.25 3859.62 2095.33 3852.47 2094.88 3852.47 2084.44"/><polygon fill="#1ca3e5" points="3995.29 2058.63 3904.89 2059.29 3938.15 2128.48 4053.23 2127.82 3995.29 2058.63"/><polygon fill="#d2edfa" points="3970.25 2058.82 3920.89 2092.56 3925.19 2101.53 3989.21 2058.68 3970.25 2058.82"/><polygon fill="#d2edfa" points="4022.1 2090.65 3967.01 2128.31 3984.9 2128.21 4028.9 2098.76 4022.1 2090.65"/><rect width="32.36" height="69.47" x="3872.14" y="2177.68" fill="#02232b" rx="12.56"/><path fill="#8bba4a" d="M3925.12,2156.83l-41.95,11.86v26.51H3893v-15.74l33.72-10.64A20.7,20.7,0,0,0,3925.12,2156.83Z"/><path fill="#8bba4a" d="M3915.48,2201.68v-10.56a14.5,14.5,0,0,0-14.5-14.49h-17a14.49,14.49,0,0,0-14.49,14.49v10.56c0,.49,0,1,.07,1.45h45.82A13.94,13.94,0,0,0,3915.48,2201.68Z"/><rect width="25.85" height="55.49" x="2652.16" y="2036.23" fill="#02232b" rx="10.03" transform="rotate(180 2665.085 2063.975)"/><polygon fill="#8bba4a" points="2713.19 2018.12 2667.58 2031.02 2667.58 2052.19 2675.46 2052.19 2675.46 2039.62 2713.19 2027.71 2713.19 2018.12"/><path fill="#8bba4a" d="M2646.73,2055.4V2047a11.57,11.57,0,0,1,11.57-11.58h13.56a11.57,11.57,0,0,1,11.58,11.58v8.43a11.12,11.12,0,0,1-.06,1.16h-36.59A11.12,11.12,0,0,1,2646.73,2055.4Z"/><rect width="21.28" height="43.14" x="2718.93" y="1963.65" fill="#02232b" rx="8.26" transform="rotate(180 2729.575 1985.225)"/><path fill="#8bba4a" d="M2718.08,1975.41v-5.85a8,8,0,0,1,8-8h9.41a8,8,0,0,1,8,8v5.85a7,7,0,0,1,0,.8h-25.39C2718.1,1976,2718.08,1975.68,2718.08,1975.41Z"/><polygon fill="#8bba4a" points="2726.98 1964.88 2753.03 1957.51 2751.44 1965.2 2732.69 1971.11 2732.69 1973.57 2726.98 1973.22 2726.98 1964.88"/><polygon fill="#405c19" points="2850.72 1976.94 2814.94 2065.55 2683.44 2064.64 2695.42 2019.77 2747.33 1976.02 2850.72 1976.94"/><polygon fill="#8bba4a" points="2840.74 1949.43 2802.95 2020.51 2695.42 2019.77 2756.19 1948.68 2840.74 1949.43"/><rect width="21.28" height="43.14" x="2856.15" y="1973.87" fill="#02232b" rx="8.26" transform="rotate(-180 2866.79 1995.44)"/><polygon fill="#1c2a07" points="2850.72 1976.94 2840.74 1949.43 2802.95 2021.51 2814.94 2065.55 2850.72 1976.94"/><path fill="#8bba4a" d="M2879.58,1985.62v-5.85a8,8,0,0,0-8-8h-9.41a8,8,0,0,0-8,8v5.85a7,7,0,0,0,0,.8h25.39C2879.56,1986.16,2879.58,1985.89,2879.58,1985.62Z"/><polygon fill="#8bba4a" points="2870.68 1975.09 2844.63 1967.72 2846.22 1975.41 2864.97 1981.33 2864.97 1983.79 2870.68 1983.43 2870.68 1975.09"/><polygon fill="#1ca3e5" points="2756.61 1954.48 2828.81 1955.01 2802.25 2010.26 2710.32 2009.74 2756.61 1954.48"/><polygon fill="#d2edfa" points="2776.61 1954.62 2816.04 1981.58 2812.59 1988.74 2761.46 1954.51 2776.61 1954.62"/><polygon fill="#d2edfa" points="2735.19 1980.05 2779.19 2010.13 2764.91 2010.05 2729.76 1986.53 2735.19 1980.05"/><rect width="25.85" height="55.49" x="2829.13" y="2049.56" fill="#02232b" rx="10.03" transform="rotate(180 2842.05 2077.31)"/><path fill="#8bba4a" d="M2812.66,2032.91l33.5,9.48v21.16h-7.88V2051l-26.93-8.5A16.48,16.48,0,0,1,2812.66,2032.91Z"/><path fill="#8bba4a" d="M2820.36,2068.74v-8.44a11.58,11.58,0,0,1,11.58-11.58h13.55a11.58,11.58,0,0,1,11.58,11.58v8.44a10.93,10.93,0,0,1-.06,1.15h-36.59A10.93,10.93,0,0,1,2820.36,2068.74Z"/><path fill="#69a31a" d="M4650.24,3431.35c-44.85,176.07,50.33,260.94,50.33,260.94s362.28-348.18,362.28-445.62C4813.55,3234.55,4695.09,3255.28,4650.24,3431.35Z"/><path fill="#bcd845" d="M4746.63,3498.73c51.09-114.77,142.89-226.66,274.76-252.88-104.32-13.67-174.94,55.08-231.74,134-51.37,71.39-94.28,148.29-89.46,231.33C4713.43,3577.17,4723.41,3548.8,4746.63,3498.73Z"/><path fill="#1ca3e5" d="M569.77,1546.87C558,1582.52,583.56,1630.29,611,1655c27.88,25.07,64.83,19,95.84,3,40.16-20.73,80.11-61.4,61.74-110.11-6-15.91-20.08-34.2-35.47-42.17-24.49-12.7-52.46-5.26-79-3.59-19.9,1.25-40.27,4.06-57.67,13.79C582.21,1523.83,573.79,1534.64,569.77,1546.87Z"/><path fill="#93c74b" d="M5442.81,1775.68s-47,8.67,0,123.68,88.79,340.47,180.61,248.65S5533.16,1685.33,5442.81,1775.68Z"/><circle cx="2101.79" cy="2881.52" r="172.81" fill="#fff"/><circle cx="752.55" cy="3005.74" r="243.15" fill="#fff"/><circle cx="697.46" cy="2485.57" r="148.51" fill="#fff"/><path fill="#76ae28" d="M914.92,2980l-.15,61.12-27.08-.07a60.24,60.24,0,0,0-110.66-.28l-32.12-.09A84,84,0,0,0,623,2965.52l.15-57.43A36.17,36.17,0,0,1,659.39,2872l77.66.21a19.67,19.67,0,0,1,18.47,13L780,2953.13l108.38.28A26.57,26.57,0,0,1,914.92,2980Z"/><path fill="#76ae28" d="M876.71 3040.79a50.14 50.14 0 106 23.78A50.12 50.12 0 00876.71 3040.79zm-44.13 48.64a24.86 24.86 0 01-7.25-48.64 24.66 24.66 0 0114.5 0 24.86 24.86 0 01-7.25 48.64zM661.11 2969.86A70.93 70.93 0 10732 3040.79 70.64 70.64 0 00661.11 2969.86zm0 111.56a40.64 40.64 0 1140.65-40.63A40.63 40.63 0 01661.11 3081.42z"/><path fill="#3e610d" d="M2147.93,2868.86h0l33.9-15.24,29,29a8.32,8.32,0,1,0,11.76-11.76l-33-33a8.28,8.28,0,0,0-9.28-1.71l-39.14,17.6a8.31,8.31,0,0,0,6.82,15.16Z"/><path fill="#3e610d" d="M2189.53,2881.25a8.3,8.3,0,0,0-9.28-1.7l-39.14,17.6a8.31,8.31,0,0,0,6.82,15.16h0l33.9-15.25,29,29a8.31,8.31,0,1,0,11.76-11.75Z"/><path fill="#3e610d" d="M2189.53 2920a8.28 8.28 0 00-9.28-1.7l-39.14 17.59a8.31 8.31 0 006.82 15.16h0l33.9-15.24 29 29a8.31 8.31 0 1011.76-11.75zM2062.47 2853.7h0l-39.14-17.6a8.28 8.28 0 00-9.28 1.71l-33 33a8.32 8.32 0 1011.76 11.76l29-29 33.9 15.24a8.31 8.31 0 106.82-15.16z"/><path fill="#3e610d" d="M2062.47,2897.15h0l-39.14-17.6a8.3,8.3,0,0,0-9.28,1.7l-33,33a8.31,8.31,0,1,0,11.76,11.75l29-29,33.9,15.25a8.31,8.31,0,0,0,6.82-15.16Z"/><path fill="#3e610d" d="M2062.47,2935.92h0l-39.14-17.59a8.28,8.28,0,0,0-9.28,1.7l-33,33a8.31,8.31,0,1,0,11.76,11.75l29-29,33.9,15.24a8.31,8.31,0,1,0,6.82-15.16Z"/><path fill="#76ae28" d="M2170.46 2899.56a67.48 67.48 0 00-58.17-66.82v133.64A67.46 67.46 0 002170.46 2899.56zM2035.54 2899.56a67.47 67.47 0 0059 66.93V2832.63A67.48 67.48 0 002035.54 2899.56zM2069.14 2808.62a25.49 25.49 0 0028.5 16.92l-16.2-47.7A25.51 25.51 0 002069.14 2808.62zM2140.79 2808.26a25.49 25.49 0 01-28.5 16.92l16.2-47.7A25.51 25.51 0 012140.79 2808.26zM740.36 2496.45a42.9 42.9 0 01-85.79 0c0-23.69 42.89-92.76 42.89-92.76S740.36 2472.76 740.36 2496.45z"/></svg>