<svg xmlns="http://www.w3.org/2000/svg" data-name="Layer 1" viewBox="0 0 512 512"><g data-name="&lt;Group&gt;"><g data-name="&lt;Group&gt;"><path fill="#ed664c" d="M462.96 256a19.52 19.52 0 1 1 5.72 13.8A19.452 19.452 0 0 1 462.96 256zM458.58 158.17a19.52 19.52 0 1 1 5.72 13.8A19.469 19.469 0 0 1 458.58 158.17zM458.58 353.83a19.52 19.52 0 1 1 5.72 13.8A19.469 19.469 0 0 1 458.58 353.83z" data-name="&lt;Group&gt;"/><path fill="#fdc75b" d="M409.86,304.07v75.29a30,30,0,0,1-30,30H133.14a30,30,0,0,1-30-30V132.64a30,30,0,0,1,30-30H379.86a30,30,0,0,1,30,30V304.07Zm-49,56.29V151.64H152.14V360.36Z" data-name="&lt;Group&gt;"/><path fill="#ed664c" d="M353.83 53.42a19.52 19.52 0 1 1 13.8-5.72A19.469 19.469 0 0 1 353.83 53.42zM353.83 458.58a19.52 19.52 0 1 1-13.8 5.72A19.469 19.469 0 0 1 353.83 458.58zM283.21 204.12c-.58-.66-1.17-1.3-1.79-1.92a36.245 36.245 0 0 0-61.86 25.54 9.433 9.433 0 0 0-9.21 9.42v49.81a39.769 39.769 0 0 0 39.77 39.77h11.17a39.769 39.769 0 0 0 39.77-39.77V237.16a9.428 9.428 0 0 0-9.01-9.41A36.054 36.054 0 0 0 283.21 204.12zm77.65-52.48V360.36H152.14V151.64z" data-name="&lt;Group&gt;"/><path fill="#fdc75b" d="M292.05,227.75a9.428,9.428,0,0,1,9.01,9.41v49.81a39.769,39.769,0,0,1-39.77,39.77h-5.68v-99h36.03C291.78,227.74,291.92,227.74,292.05,227.75Z" data-name="&lt;Group&gt;"/><g data-name="&lt;Group&gt;"><path fill="#fdc75b" d="M283.21,204.12a36.054,36.054,0,0,1,8.84,23.63c-.13-.01-.27-.01-.41-.01H219.56a36.225,36.225,0,0,1,61.86-25.54C282.04,202.82,282.63,203.46,283.21,204.12Z" data-name="&lt;Path&gt;"/></g><path fill="#ed664c" d="M256 49.04a19.52 19.52 0 1 1 13.8-5.72A19.452 19.452 0 0 1 256 49.04zM256 462.96a19.52 19.52 0 1 1-13.8 5.72A19.452 19.452 0 0 1 256 462.96z" data-name="&lt;Group&gt;"/><path fill="#fdc75b" d="M219.56,227.74h36.05v99h-5.49a39.769,39.769,0,0,1-39.77-39.77V237.16A9.433,9.433,0,0,1,219.56,227.74Z" data-name="&lt;Group&gt;"/><path fill="#ed664c" d="M158.17 53.42a19.52 19.52 0 1 1 13.8-5.72A19.469 19.469 0 0 1 158.17 53.42zM158.17 458.58a19.52 19.52 0 1 1-13.8 5.72A19.469 19.469 0 0 1 158.17 458.58zM53.42 158.17a19.52 19.52 0 1 1-5.72-13.8A19.469 19.469 0 0 1 53.42 158.17zM53.42 353.83a19.52 19.52 0 1 1-5.72-13.8A19.469 19.469 0 0 1 53.42 353.83zM49.04 256a19.52 19.52 0 1 1-5.72-13.8A19.452 19.452 0 0 1 49.04 256z" data-name="&lt;Group&gt;"/></g><g data-name="&lt;Group&gt;"><path d="M185,268.69a7,7,0,0,0,7-7v-1.73a6.735,6.735,0,0,1,6.82-6.96H203v16h-.85A20.925,20.925,0,0,0,181,289.84v5.22a7,7,0,0,0,14,0v-5.22a6.913,6.913,0,0,1,7.15-6.84H203v3.97a46.858,46.858,0,0,0,2.235,12.886A20.8,20.8,0,0,0,191,319.96v5.31a7,7,0,0,0,14,0v-5.31a6.812,6.812,0,0,1,6.43-6.977A46.448,46.448,0,0,0,250.12,334h11.17c16.433,0,30.9-9,39.247-22h.283a7.5,7.5,0,0,1,7.18,7.49v5.78a7,7,0,0,0,14,0v-5.78a21.2,21.2,0,0,0-15.562-20.347A46.643,46.643,0,0,0,308,286.97V283h1.85a7.311,7.311,0,0,1,7.15,7.31v4.75a7,7,0,0,0,14,0v-4.75A21.325,21.325,0,0,0,309.85,269H308V253h5.18a6.735,6.735,0,0,1,6.82,6.96v1.73a7,7,0,1,0,14,0v-1.73A20.746,20.746,0,0,0,313.18,239H308v-1.84a16.357,16.357,0,0,0-9.334-14.831,43.163,43.163,0,0,0-6.473-17.815l12.112-13.674a7,7,0,1,0-10.479-9.279l-11.047,12.483a42.877,42.877,0,0,0-26.98-9.474,43.317,43.317,0,0,0-26.03,8.759l-11.235-12.706a7,7,0,0,0-10.488,9.273l12.022,13.6a43.268,43.268,0,0,0-7.317,18.775A16.688,16.688,0,0,0,203,237.16V239h-4.18A20.746,20.746,0,0,0,178,259.96v1.73A7,7,0,0,0,185,268.69Zm32,18.28V237.16a2.488,2.488,0,0,1,2.29-2.277c.029,0,.232.117.262.117H249v84.7C231,318.91,217,304.533,217,286.97Zm46,32.737V235h28.684c.019,0,.01-.128.029-.127A2.278,2.278,0,0,1,294,237.16v37.231c0,.572-.239,1.17-.239,1.789s.239,1.216.239,1.788v9C294,304.6,280,319.011,263,319.707ZM276.47,207.15c.212.212.428.437.647.671a7.015,7.015,0,0,0,1.315,1.6c.079.072.163.263.245.331A30.025,30.025,0,0,1,284.17,221H227.432a27.376,27.376,0,0,1,6.619-12.561c.036-.035.074-.129.109-.164a7.38,7.38,0,0,0,.489-.579,29.169,29.169,0,0,1,41.821-.546Z" data-name="&lt;Compound Path&gt;"/><path d="M368,152a7,7,0,0,0-7-7H152a7,7,0,0,0-7,7V361a7,7,0,0,0,7,7H361a7,7,0,0,0,7-7ZM354,353H159V159H354Z" data-name="&lt;Compound Path&gt;"/><path d="M456.9,263a26.393,26.393,0,0,0,6.832,11.75l0,0A26.5,26.5,0,1,0,456.9,249H417V213h18.58a7.613,7.613,0,0,0,7.42-7.28V165h9.518a23.76,23.76,0,0,0,6.832,11.835,26.651,26.651,0,0,0,18.825,7.8A26.3,26.3,0,0,0,497,176.9v.009c10-10.338,10.262-27.155-.075-37.493a26.594,26.594,0,0,0-37.538-.083A28.54,28.54,0,0,0,452.518,151H435.58c-3.866,0-6.58,3.3-6.58,7.17V199H417V132.64c0-20.4-16.737-36.64-37.14-36.64H311V83h42.83c3.866,0,7.17-2.714,7.17-6.58V59.482a28.421,28.421,0,0,0,11.665-6.832,26.54,26.54,0,1,0-37.489,0A23.719,23.719,0,0,0,347,59.482V69H304.07A7.43,7.43,0,0,0,297,76.42V96H263V55.1a26.373,26.373,0,0,0,11.75-6.831l0,0A26.5,26.5,0,1,0,249,55.1V96H213V76.42A7.613,7.613,0,0,0,205.72,69H165V59.482a23.876,23.876,0,0,0,11.835-6.906C187.173,42.237,187.215,25,176.877,15h.021c-10.338-10-27.149-10.261-37.489.075a26.594,26.594,0,0,0-.079,37.538A28.529,28.529,0,0,0,151,59.482V76.42c0,3.866,3.3,6.58,7.17,6.58H199V96H133.14C112.737,96,96,112.237,96,132.64V201H83V158.17c0-3.866-2.714-7.17-6.58-7.17H59.482a28.432,28.432,0,0,0-6.832-11.665,26.581,26.581,0,1,0,0,37.5A23.749,23.749,0,0,0,59.482,165H69v42.93A7.43,7.43,0,0,0,76.42,215H96v34H55.1a26.393,26.393,0,0,0-6.832-11.75l0,0A26.5,26.5,0,1,0,55.1,263H96v36H76.42A7.613,7.613,0,0,0,69,306.28V347H59.482a23.879,23.879,0,0,0-6.906-11.835C42.236,324.827,25,324.784,15,335.123V335.1c-10,10.338-10.262,27.15.075,37.489a26.725,26.725,0,0,0,37.557.077A28.5,28.5,0,0,0,59.482,361H76.42c3.866,0,6.58-3.3,6.58-7.17V313H96v66.36c0,20.4,16.737,36.64,37.14,36.64H201v13H158.17c-3.866,0-7.17,2.714-7.17,6.58v16.938a28.421,28.421,0,0,0-11.665,6.832,26.543,26.543,0,1,0,37.5,0A23.741,23.741,0,0,0,165,452.518V443h42.93a7.43,7.43,0,0,0,7.07-7.42V416h34v40.9a26.373,26.373,0,0,0-11.75,6.831l0,0A26.5,26.5,0,1,0,263,456.9V416h36v19.58a7.613,7.613,0,0,0,7.28,7.42H347v9.518a23.876,23.876,0,0,0-11.835,6.906C324.827,469.763,324.785,487,335.123,497H335.1a27.059,27.059,0,0,0,18.739,7.678,26.592,26.592,0,0,0,18.827-45.31A28.493,28.493,0,0,0,361,452.518V435.58c0-3.866-3.3-6.58-7.17-6.58H313V416h66.86c20.4,0,37.14-16.237,37.14-36.64V311h12v42.83c0,3.866,2.714,7.17,6.58,7.17h16.938a28.432,28.432,0,0,0,6.832,11.665,26.543,26.543,0,1,0,0-37.5A23.749,23.749,0,0,0,452.518,347H443V304.07a7.43,7.43,0,0,0-7.42-7.07H417V263Zm16.729-15.847A12.508,12.508,0,1,1,469.96,256,12.539,12.539,0,0,1,473.626,247.153ZM469.25,149.32a12.506,12.506,0,1,1-3.67,8.85A12.434,12.434,0,0,1,469.25,149.32ZM341.315,33.9a12.522,12.522,0,1,1,3.665,8.85A12.437,12.437,0,0,1,341.315,33.9ZM247.153,20.666a12.52,12.52,0,1,1,0,17.708A12.426,12.426,0,0,1,247.153,20.666ZM145.655,33.9a12.522,12.522,0,1,1,3.665,8.85A12.437,12.437,0,0,1,145.655,33.9ZM42.75,167.02a12.506,12.506,0,1,1,3.67-8.85A12.434,12.434,0,0,1,42.75,167.02Zm-4.376,97.827A12.508,12.508,0,1,1,42.04,256,12.539,12.539,0,0,1,38.374,264.847ZM42.75,362.68a12.516,12.516,0,1,1-17.7-17.7h0a12.516,12.516,0,1,1,17.7,17.7ZM170.685,478.1a12.522,12.522,0,1,1-3.665-8.85A12.437,12.437,0,0,1,170.685,478.1Zm94.162,13.234a12.52,12.52,0,1,1,0-17.708A12.426,12.426,0,0,1,264.847,491.334Zm101.5-13.234a12.515,12.515,0,0,1-21.366,8.85h0a12.516,12.516,0,1,1,21.365-8.85ZM403,380a23,23,0,0,1-23,23H133a23,23,0,0,1-23-23V133a23,23,0,0,1,23-23H380a23,23,0,0,1,23,23Zm66.25-35.02a12.506,12.506,0,1,1-3.67,8.85A12.434,12.434,0,0,1,469.25,344.98Z" data-name="&lt;Compound Path&gt;"/></g></g></svg>