<svg xmlns="http://www.w3.org/2000/svg" enable-background="new 0 0 135 135" viewBox="0 0 135 135"><rect width="4.512" height="36.263" x="120.88" y="92.081" fill="#ab5033"/><rect width="4.512" height="36.263" x="105.949" y="92.081" fill="#ab5033"/><path fill="#8eae1f" d="M118.3224335,51.7946815V86.110199c0,5.5840912-4.5244598,10.118103-10.1178741,10.118103
				c-5.5936432,0-10.118103-4.5340118-10.118103-10.118103V51.7946815c0-5.5934105,4.5244598-10.1274261,10.118103-10.1274261
				c2.7967072,0,5.3261185,1.1358337,7.1589661,2.9684563C117.1865997,46.4687996,118.3224335,48.9982109,118.3224335,51.7946815z"/><path fill="#86a018" d="M101.3049011 51.1374741c0-.6134911.4910202-1.0891533 1.0891495-1.0891533.5985107 0 1.074173.4756622 1.074173 1.0891533 0 .5985107-.4756622 1.0734215-1.074173 1.0734215C101.7959213 52.2108955 101.3049011 51.7359848 101.3049011 51.1374741zM105.6623001 44.8200035c0-.6134911.4910126-1.0891533 1.0891495-1.0891533.5985107 0 1.074173.4756622 1.074173 1.0891533 0 .5985069-.4756622 1.0734215-1.074173 1.0734215C106.1533127 45.893425 105.6623001 45.4185104 105.6623001 44.8200035zM112.8602905 45.8979721c0-.3547859.2839661-.6298676.6298676-.6298676.3461227 0 .6212082.2750816.6212082.6298676 0 .3461227-.2750854.6207695-.6212082.6207695C113.1442566 46.5187416 112.8602905 46.2440948 112.8602905 45.8979721zM110.6969681 50.6815033c0-.6134911.4910202-1.0891495 1.0891571-1.0891495.5985031 0 1.0741653.4756584 1.0741653 1.0891495 0 .5985107-.4756622 1.0734215-1.0741653 1.0734215C111.1879883 51.7549248 110.6969681 51.280014 110.6969681 50.6815033zM113.4858246 73.350502c0-.6134872.4910202-1.0891495 1.0891571-1.0891495.5985107 0 1.074173.4756622 1.074173 1.0891495 0 .5985107-.4756622 1.0734253-1.074173 1.0734253C113.9768448 74.4239273 113.4858246 73.9490128 113.4858246 73.350502zM106.2315979 62.7432518c0-.3241081.259407-.5753975.5754013-.5753975.3161926 0 .567482.2512894.567482.5753975 0 .3161888-.2512894.5670853-.567482.5670853C106.4910049 63.3103371 106.2315979 63.0594406 106.2315979 62.7432518zM101.6107712 78.929039c0-.3241043.2593994-.5753937.5753937-.5753937.3161926 0 .567482.2512894.567482.5753937 0 .3161926-.2512894.5670853-.567482.5670853C101.8701706 79.4961243 101.6107712 79.2452316 101.6107712 78.929039zM101.6107712 66.9044342c0-.3241043.2593994-.5753937.5753937-.5753937.3161926 0 .567482.2512894.567482.5753937 0 .3161926-.2512894.5670853-.567482.5670853C101.8701706 67.4715195 101.6107712 67.2206268 101.6107712 66.9044342zM107.0347443 74.999321c0-.3241043.2593994-.5753937.5753937-.5753937.3161926 0 .567482.2512894.567482.5753937 0 .3161926-.2512894.5670929-.567482.5670929C107.2941437 75.5664139 107.0347443 75.3155136 107.0347443 74.999321zM115.2471161 78.929039c0-.3241043.259407-.5753937.5754013-.5753937.3161926 0 .567482.2512894.567482.5753937 0 .3161926-.2512894.5670853-.567482.5670853C115.5065231 79.4961243 115.2471161 79.2452316 115.2471161 78.929039zM113.5437698 85.8527756c0-.3241043.259407-.5753937.5754013-.5753937.3161926 0 .567482.2512894.567482.5753937 0 .3161926-.2512894.5670853-.567482.5670853C113.8031769 86.4198608 113.5437698 86.1689682 113.5437698 85.8527756zM108.1164017 85.8527756c0-.3241043.259407-.5753937.5754013-.5753937.316185 0 .567482.2512894.567482.5753937 0 .3161926-.251297.5670853-.567482.5670853C108.3758087 86.4198608 108.1164017 86.1689682 108.1164017 85.8527756zM102.8967819 91.9836884c0-.3241119.259407-.5754013.5754013-.5754013.3161926 0 .567482.2512894.567482.5754013 0 .316185-.2512894.5670853-.567482.5670853C103.156189 92.5507736 102.8967819 92.2998734 102.8967819 91.9836884zM104.4858551 69.8829956c0-.3241043.259407-.5754013.5754013-.5754013.316185 0 .567482.251297.567482.5754013 0 .3161926-.251297.5670853-.567482.5670853C104.7452621 70.4500809 104.4858551 70.1991882 104.4858551 69.8829956zM107.3694916 57.4808502c0-.6134911.4910202-1.0891495 1.0891571-1.0891495.5985031 0 1.0741653.4756584 1.0741653 1.0891495 0 .5985107-.4756622 1.0734215-1.0741653 1.0734215C107.8605118 58.5542717 107.3694916 58.079361 107.3694916 57.4808502zM113.0297012 61.6656723c0-.6134911.4910202-1.0891495 1.0891495-1.0891495.5985107 0 1.074173.4756584 1.074173 1.0891495 0 .5985107-.4756622 1.0734215-1.074173 1.0734215C113.5207214 62.7390938 113.0297012 62.264183 113.0297012 61.6656723zM100.1220093 61.6623573c0-.3547859.2839584-.6298676.6298676-.6298676.3461227 0 .6212006.2750816.6212006.6298676 0 .3461227-.2750778.6207695-.6212006.6207695C100.4059677 62.2831268 100.1220093 62.0084801 100.1220093 61.6623573zM103.2097778 57.4775352c0-.3547859.2839584-.6298676.6298676-.6298676.3461227 0 .6212006.2750816.6212006.6298676 0 .3461227-.2750778.6207695-.6212006.6207695C103.4937363 58.0983047 103.2097778 57.823658 103.2097778 57.4775352zM113.3164215 68.2308578c0-.3547897.2839584-.6298676.6298676-.6298676.3461227 0 .6212006.2750778.6212006.6298676 0 .3461227-.2750778.6207733-.6212006.6207733C113.6003799 68.8516312 113.3164215 68.5769806 113.3164215 68.2308578zM106.8576202 51.7594757c0-.3547859.2839661-.6298676.6298676-.6298676.3461227 0 .6212082.2750816.6212082.6298676 0 .3461227-.2750854.6207695-.6212082.6207695C107.1415863 52.3802452 106.8576202 52.1055984 106.8576202 51.7594757zM114.5674896 55.1377563c0-.3547859.2839584-.6298676.6298676-.6298676.3461227 0 .6212006.2750816.6212006.6298676 0 .3461227-.2750778.6207695-.6212006.6207695C114.8514481 55.7585258 114.5674896 55.4838791 114.5674896 55.1377563zM100.0188828 73.350502c0-.6134872.4910202-1.0891495 1.0891571-1.0891495.5985107 0 1.074173.4756622 1.074173 1.0891495 0 .5985107-.4756622 1.0734253-1.074173 1.0734253C100.509903 74.4239273 100.0188828 73.9490128 100.0188828 73.350502zM111.3804474 92.8044205c0-.6134949.4910202-1.0891571 1.0891571-1.0891571.5985107 0 1.0741653.4756622 1.0741653 1.0891571 0 .5985107-.4756546 1.0734177-1.0741653 1.0734177C111.8714676 93.8778381 111.3804474 93.4029312 111.3804474 92.8044205zM108.4511566 68.8594971c0-.6134949.4910126-1.0891571 1.0891495-1.0891571.5985107 0 1.074173.4756622 1.074173 1.0891571 0 .5985031-.4756622 1.0734177-1.074173 1.0734177C108.9421692 69.9329147 108.4511566 69.4580002 108.4511566 68.8594971zM108.1776199 79.5039902c0-.6134872.4910202-1.0891495 1.0891495-1.0891495.5985107 0 1.074173.4756622 1.074173 1.0891495 0 .5985107-.4756622 1.0734253-1.074173 1.0734253C108.6686401 80.5774155 108.1776199 80.1025009 108.1776199 79.5039902zM102.3865662 84.7751999c0-.6134872.4910126-1.0891495 1.0891495-1.0891495.5985107 0 1.074173.4756622 1.074173 1.0891495 0 .5985107-.4756622 1.0734253-1.074173 1.0734253C102.8775787 85.8486252 102.3865662 85.3737106 102.3865662 84.7751999z"/><path fill="#86a018" d="M131.441925,68.0200577v28.1697845c0,4.5840073-3.7141571,8.3059998-8.3058167,8.3059998
				c-4.5918503,0-8.3059998-3.7219925-8.3059998-8.3059998V68.0200577c0-4.5916595,3.7141495-8.3136559,8.3059998-8.3136559
				c2.2958298,0,4.3722382,0.932415,5.8768311,2.436821C130.5095062,63.6480141,131.441925,65.7244186,131.441925,68.0200577z"/><path fill="#7e9112" d="M129.2745209 96.7661972c0 .4858856-.3889008.8626175-.8626251.8626175-.4740295 0-.8507538-.3767319-.8507538-.8626175 0-.4740295.3767242-.8501663.8507538-.8501663C128.8856201 95.9160309 129.2745209 96.2921677 129.2745209 96.7661972zM125.82341 101.7697067c0 .4858932-.3888931.8626175-.8626251.8626175-.4740219 0-.8507538-.3767242-.8507538-.8626175 0-.4740295.3767319-.8501663.8507538-.8501663C125.4345169 100.9195404 125.82341 101.2956772 125.82341 101.7697067zM120.1225128 100.9159393c0 .2809982-.2248993.4988632-.4988632.4988632-.2741318 0-.4919968-.217865-.4919968-.4988632 0-.2741318.217865-.4916534.4919968-.4916534C119.8976135 100.4242859 120.1225128 100.6418076 120.1225128 100.9159393zM121.8358917 97.127327c0 .4858932-.3888931.8626251-.8626251.8626251-.4740219 0-.8507538-.3767319-.8507538-.8626251 0-.4740295.3767319-.8501587.8507538-.8501587C121.4469986 96.2771683 121.8358917 96.6532974 121.8358917 97.127327zM119.6270828 79.1732178c0 .4858932-.3888931.8626251-.8626251.8626251-.4740219 0-.8507538-.3767319-.8507538-.8626251 0-.4740219.3767319-.8501587.8507538-.8501587C119.2381897 78.3230591 119.6270828 78.6991959 119.6270828 79.1732178zM125.3725128 87.5742874c0 .256691-.205452.455719-.455719.455719-.2504272 0-.4494553-.199028-.4494553-.455719 0-.2504272.199028-.4491425.4494553-.4491425C125.1670609 87.125145 125.3725128 87.3238602 125.3725128 87.5742874zM129.0322723 74.7549591c0 .256691-.2054596.455719-.4557343.455719-.2504272 0-.4494476-.199028-.4494476-.455719 0-.2504272.1990204-.4491425.4494476-.4491425C128.8268127 74.3058167 129.0322723 74.5045319 129.0322723 74.7549591zM129.0322723 84.2785797c0 .2566986-.2054596.4557266-.4557343.4557266-.2504272 0-.4494476-.199028-.4494476-.4557266 0-.2504272.1990204-.4491348.4494476-.4491348C128.8268127 83.8294449 129.0322723 84.0281525 129.0322723 84.2785797zM124.7364197 77.8673401c0 .256691-.205452.455719-.4557266.455719-.2504272 0-.4494476-.199028-.4494476-.455719 0-.2504272.1990204-.4491425.4494476-.4491425C124.5309677 77.4181976 124.7364197 77.6169128 124.7364197 77.8673401zM118.2321167 74.7549591c0 .256691-.2054443.455719-.455719.455719-.2504272 0-.4494476-.199028-.4494476-.455719 0-.2504272.1990204-.4491425.4494476-.4491425C118.0266724 74.3058167 118.2321167 74.5045319 118.2321167 74.7549591zM119.581192 69.2712784c0 .256691-.205452.455719-.4557266.455719-.2504272 0-.4494476-.199028-.4494476-.455719 0-.2504272.1990204-.4491425.4494476-.4491425C119.3757401 68.8221359 119.581192 69.0208511 119.581192 69.2712784zM123.8797302 69.2712784c0 .256691-.205452.455719-.455719.455719-.2504272 0-.4494553-.199028-.4494553-.455719 0-.2504272.199028-.4491425.4494553-.4491425C123.6742783 68.8221359 123.8797302 69.0208511 123.8797302 69.2712784zM128.0137329 64.4155273c0 .2566986-.2054596.455719-.4557266.455719-.2504272 0-.4494553-.1990204-.4494553-.455719 0-.2504272.199028-.4491386.4494553-.4491386C127.8082733 63.9663887 128.0137329 64.1651001 128.0137329 64.4155273zM126.7551651 81.9195251c0 .2566986-.205452.4557266-.455719.4557266-.2504272 0-.4494553-.199028-.4494553-.4557266 0-.2504272.199028-.4491348.4494553-.4491348C126.5497131 81.4703903 126.7551651 81.6690979 126.7551651 81.9195251zM124.4712906 91.7421646c0 .4858932-.3888931.8626251-.8626251.8626251-.4740219 0-.8507538-.3767319-.8507538-.8626251 0-.4740219.3767319-.8501587.8507538-.8501587C124.0823975 90.8920059 124.4712906 91.2681427 124.4712906 91.7421646zM119.9883423 88.427742c0 .4858932-.3888931.8626175-.8626251.8626175-.4740219 0-.8507538-.3767242-.8507538-.8626175 0-.4740295.3767319-.8501663.8507538-.8501663C119.5994492 87.5775757 119.9883423 87.9537125 119.9883423 88.427742zM130.21138 88.4303665c0 .2809982-.2248993.4988632-.4988556.4988632-.2741394 0-.4920044-.217865-.4920044-.4988632 0-.2741318.217865-.4916534.4920044-.4916534C129.9864807 87.9387131 130.21138 88.1562347 130.21138 88.4303665zM127.765831 91.7447968c0 .2809906-.2248993.4988556-.4988556.4988556-.2741394 0-.4920044-.217865-.4920044-.4988556 0-.2741394.217865-.4916611.4920044-.4916611C127.5409317 91.2531357 127.765831 91.4706573 127.765831 91.7447968zM119.7612534 83.228035c0 .2809982-.2248993.4988632-.4988632.4988632-.2741318 0-.4919968-.217865-.4919968-.4988632 0-.2741318.217865-.4916534.4919968-.4916534C119.5363541 82.7363815 119.7612534 82.9539032 119.7612534 83.228035zM124.8766937 96.2735596c0 .2809982-.2248993.4988632-.4988556.4988632-.2741394 0-.4920044-.217865-.4920044-.4988632 0-.2741318.217865-.4916534.4920044-.4916534C124.6517944 95.7819061 124.8766937 95.9994278 124.8766937 96.2735596zM118.7703934 93.5979233c0 .2809982-.2248993.4988632-.4988632.4988632-.2741318 0-.4919968-.217865-.4919968-.4988632 0-.2741318.217865-.4916534.4919968-.4916534C118.5454941 93.1062698 118.7703934 93.3237915 118.7703934 93.5979233zM130.2930603 79.1732178c0 .4858932-.3889008.8626251-.8626251.8626251-.4740295 0-.8507538-.3767319-.8507538-.8626251 0-.4740219.3767242-.8501587.8507538-.8501587C129.9041595 78.3230591 130.2930603 78.6991959 130.2930603 79.1732178zM121.2945633 63.7654991c0 .4858894-.3888855.8626213-.8626175.8626213-.4740295 0-.8507538-.3767319-.8507538-.8626213 0-.4740295.3767242-.8501625.8507538-.8501625C120.9056778 62.9153366 121.2945633 63.2914696 121.2945633 63.7654991zM123.6146011 82.7301483c0 .4858932-.3888931.8626251-.8626175.8626251-.4740295 0-.8507614-.3767319-.8507614-.8626251 0-.4740219.3767319-.8501587.8507614-.8501587C123.225708 81.8799896 123.6146011 82.2561264 123.6146011 82.7301483zM123.8312454 74.2995911c0 .4858856-.3888931.8626175-.8626251.8626175-.4740219 0-.8507538-.3767319-.8507538-.8626175 0-.4740295.3767319-.8501663.8507538-.8501663C123.4423523 73.4494247 123.8312454 73.8255615 123.8312454 74.2995911zM128.4178314 70.124733c0 .4858856-.3889008.8626175-.8626251.8626175-.4740295 0-.8507538-.3767319-.8507538-.8626175 0-.4740295.3767242-.8501663.8507538-.8501663C128.0289307 69.2745667 128.4178314 69.6507034 128.4178314 70.124733z"/><rect width="1.97" height="72.317" x="20.823" y="47.38" fill="#86531c"/><polygon fill="#c98841" points="40.107 119.697 34.031 46.171 32.068 46.333 38.13 119.697"/><polygon fill="#c98841" points="5.477 119.697 11.54 46.333 9.577 46.171 3.5 119.697"/><path fill="#c98841" d="M38.6107826,118.5275269L5.3863916,106.5072632
						c-0.316473-0.1146469-0.5531063-0.3832703-0.6262126-0.7121277c-0.0731063-0.3289185,0.0264525-0.6723862,0.2650099-0.9106369
						L34.2758713,75.633934L9.4851522,50.8431587l1.3928661-1.3929863L36.3651695,74.937439
						c0.3847694,0.3846512,0.3847694,1.0083389,0,1.3929901L7.5136876,105.1818466l31.7675552,11.4931412L38.6107826,118.5275269z"/><path fill="#c98841" d="M5.2714419,118.5266876l-0.675271-1.8508606l31.5708408-11.5102081L7.511764,76.3282013
						c-0.3814034-0.3839264-0.3814034-1.0037689-0.0004811-1.3879929l25.1701965-25.3697357l1.3986359,1.387455
						L9.5986586,75.6333923l29.0510788,29.2359543c0.2366333,0.2382584,0.3357124,0.5808182,0.2626076,0.9087143
						s-0.3082962,0.5959167-0.6238098,0.7109833L5.2714419,118.5266876z"/><polygon fill="#daa561" points="35.913 22.346 34.388 46.526 9.229 46.526 7.703 22.346"/><polygon fill="#86531c" points="39.221 22.41 4.386 22.41 21.811 3.5"/><rect width="27.711" height="2.379" x="7.948" y="45.242" fill="#daa561"/><path fill="#86531c" d="M37.3053589,45.7161636H6.3017559L5.0700102,35.0959129h33.4670906L37.3053589,45.7161636z
						 M7.1527805,44.7606277h29.3015537l1.0096588-8.7091789H6.1431222L7.1527805,44.7606277z"/><rect width="9.694" height=".956" x="27.381" y="39.928" fill="#86531c" transform="rotate(-85.583 32.228 40.406)"/><rect width="9.672" height=".955" x="22.18" y="39.928" fill="#86531c" transform="rotate(-87.782 27.016 40.406)"/><rect width=".956" height="9.665" x="21.326" y="35.574" fill="#86531c"/><rect width=".955" height="9.672" x="16.114" y="35.57" fill="#86531c" transform="rotate(-2.214 16.591 40.406)"/><rect width=".956" height="9.694" x="10.901" y="35.559" fill="#86531c" transform="rotate(-4.42 11.38 40.406)"/><rect width="128" height="3.16" x="3.5" y="128.34" fill="#7a8490"/><g><rect width="101.301" height="33.778" x="4.833" y="94.552" fill="#e02d24"/><path fill="#e02d24" d="M97.2393875,60.7745361c-33.7668686-11.52211-49.7457008-11.52211-83.5125656,0l-8.8942108,33.777832
						H106.133255L97.2393875,60.7745361z"/><path fill="#ce1b17" d="M98.2082672 64.4093323v63.9303131h-3.5576096V59.9267159c.8537903.2490578 1.7075806.5693359 2.5969849.8537903L98.2082672 64.4093323zM89.1005783 58.1123009v70.2273407h-3.5576019V57.0806732C86.7172623 57.4009514 87.8911133 57.7566261 89.1005783 58.1123009zM79.992897 55.5509262v72.7887192h-3.5576096V54.6971359C77.609581 54.9461937 78.7838669 55.230648 79.992897 55.5509262zM70.921257 53.5586777v74.7809677h-3.5576019V52.9893379C68.5375061 53.1673927 69.711792 53.3452301 70.921257 53.5586777zM61.8140106 52.4202156v75.9194336h-3.5576057V52.206768C59.4302597 52.206768 60.6041107 52.2779884 61.8140106 52.4202156zM52.7063293 52.206768v76.1328735h-3.5576096V52.4202156C50.3581848 52.2779884 51.5320396 52.206768 52.7063293 52.206768zM43.6342583 52.9893379v75.3503113h-3.5576096V53.5586777C41.2865486 53.3452301 42.4604034 53.1673927 43.6342583 52.9893379zM34.5270081 54.6971359v73.6425095h-3.5576077V55.5509262C32.1788673 55.230648 33.3531532 54.9461937 34.5270081 54.6971359zM25.4197598 57.0806732v71.2589722h-3.5576077V58.1123009C23.0711823 57.7566261 24.245472 57.4009514 25.4197598 57.0806732zM16.3120766 59.9267159v68.4129333h-3.5576067V64.4093323l.9606228-3.6288261C14.604495 60.4960518 15.4582863 60.1757736 16.3120766 59.9267159z"/><path fill="#f9f6c9" d="M107.4662094,128.3296661h-2.6682053V95.8856049H6.1682062v32.4440613H3.5000007V94.5514984
					c0-0.7365341,0.5975668-1.3340988,1.3341029-1.3340988H106.132103c0.7365341,0,1.3341064,0.5975647,1.3341064,1.3340988
					V128.3296661z"/><path fill="#f9f6c9" d="M104.8431625,94.8919754l-8.713356-33.0850525c-32.9009171-11.1557388-48.3785934-11.159214-81.2934113,0
					L6.1230412,94.8919754l-2.5778754-0.6809464l8.8940182-33.7764244c0.1111746-0.4308052,0.4342775-0.7782288,0.8581333-0.9224091
					c33.9049683-11.5674324,50.4596558-11.5709076,84.3715744,0c0.423851,0.1441803,0.7469559,0.4916039,0.8581314,0.9224091
					l8.8940201,33.7764244L104.8431625,94.8919754z"/><rect width="18.899" height="25.896" x="46.035" y="61.992" fill="#44433f"/><rect width="9.009" height="24.114" x="46.914" y="62.883" fill="#e02d24"/><path fill="#eae5b7" d="M54.859745,63.9470253V85.93573h-6.8733215V63.9470253H54.859745 M55.9272003,62.879734h-9.0082359
							v24.1232872h9.0082359V62.879734L55.9272003,62.879734z"/><path fill="#f9f6c9" d="M64.9363022,88.7818222H46.0295639c-0.4898643,0-0.8894005-0.3977966-0.8894005-0.8893967V61.9903297
								c0-0.4916,0.3995361-0.8894005,0.8894005-0.8894005h18.9067383c0.4898682,0,0.8893967,0.3978004,0.8893967,0.8894005
								v25.9020958C65.8256989,88.3840256,65.4261703,88.7818222,64.9363022,88.7818222z M46.9189644,87.0030212h17.1279335
								V62.879734H46.9189644V87.0030212z"/><rect width="9.008" height="24.123" x="64.047" y="62.88" fill="#44433f"/><path fill="#eae5b7" d="M71.9876785,63.9470253V85.93573H65.114357V63.9470253H71.9876785 M73.05513,62.879734h-9.0082321
						v24.1232872H73.05513V62.879734L73.05513,62.879734z"/><rect width="30.788" height="32.454" x="40.09" y="95.88" fill="#44433f"/><g><rect width="14.781" height="32.442" x="40.09" y="95.892" fill="#ce1b17"/><path fill="#eae5b7" d="M53.4331055,97.3222046v29.5726089H41.5209694V97.3222046H53.4331055 M54.8687286,95.8868027H40.0853462
						v32.4434128h14.7833824V95.8868027L54.8687286,95.8868027z"/><rect width="14.763" height="1.46" x="40.085" y="111.379" fill="#eae5b7"/><polygon fill="#eae5b7" points="40.651 112.986 53.57 128.063 54.602 127.031 41.683 111.954"/><polygon fill="#eae5b7" points="53.57 111.954 40.651 127.031 41.683 128.063 54.602 112.986"/><rect width="14.781" height="32.442" x="58.26" y="95.892" fill="#ce1b17"/><path fill="#eae5b7" d="M71.6041641,97.3222046v29.5726089H59.6920242V97.3222046H71.6041641 M73.0397873,95.8868027H58.2564049
						v32.4434128h14.7833824V95.8868027L73.0397873,95.8868027z"/><rect width="14.763" height="1.46" x="58.256" y="111.379" fill="#eae5b7"/><polygon fill="#eae5b7" points="58.822 112.986 71.741 128.063 72.773 127.031 59.854 111.954"/><polygon fill="#eae5b7" points="71.741 111.954 58.822 127.031 59.854 128.063 72.773 112.986"/></g></g></svg>