<svg xmlns="http://www.w3.org/2000/svg" viewBox="0 0 64 64"><path fill="#f7931e" d="M59,35.42v4.94A9,9,0,0,0,43.52,43H27c0-.21,0-.41,0-.62A2.83,2.83,0,0,0,27,42c0-.12,0-.24,0-.36,0-.3-.08-.59-.13-.87s-.05-.26-.08-.38L26.62,40a10.88,10.88,0,0,0-.45-1.4c-.06-.15-.12-.31-.19-.46a1,1,0,0,1-.07-.15c-.07-.16-.15-.33-.24-.49l-.12-.23a8.85,8.85,0,0,0-.6-1l-.06-.09a6.55,6.55,0,0,0-.39-.53,5.47,5.47,0,0,0-.44-.54,5.14,5.14,0,0,0-.38-.42,13.3,13.3,0,0,0-1.24-1.13,4.59,4.59,0,0,0-.44-.33A12,12,0,0,0,9,32.6V26H49.58a9.4,9.4,0,0,1,7.7,4,9.29,9.29,0,0,1,1.61,4A9.49,9.49,0,0,1,59,35.42Z"/><path fill="#5e5e5e" d="M27,43a11.8,11.8,0,0,1-.69,4A12,12,0,1,1,27,43Z"/><path fill="#ccc" d="M15,51a8,8,0,1,1,8-8A8,8,0,0,1,15,51Z"/><path fill="#5e5e5e" d="M61,46a9,9,0,0,1-18,0,8.8,8.8,0,0,1,.52-3A9,9,0,0,1,61,46Z"/><path fill="#ccc" d="M52,51a5,5,0,0,1-5-5,4.75,4.75,0,0,1,.28-1.64A5,5,0,1,1,52,51Z"/><path fill="#e6e6e6" d="M17,9H28.75a2,2,0,0,1,1.93,1.47l.7,2.53L35,26H9V11a2,2,0,0,1,2-2h6Z"/><polygon fill="#5ecff7" points="35 26 22 26 22 13 31.38 13 31.6 13.78 32.52 17.1 35 26"/><rect width="8" height="13" x="9" y="13" fill="#5ecff7"/><path fill="#29abe2" d="M58.89,34H52V30h5.28A9.29,9.29,0,0,1,58.89,34Z"/><path fill="#d66e07" d="M35,26V43H27c0-.21,0-.41,0-.62A2.83,2.83,0,0,0,27,42c0-.12,0-.24,0-.36,0-.3-.08-.59-.13-.87s-.05-.26-.08-.38L26.62,40a10.88,10.88,0,0,0-.45-1.4c-.06-.16-.12-.31-.19-.46a1,1,0,0,1-.07-.15l-.24-.49-.12-.23c-.19-.34-.38-.66-.6-1l-.06-.09a6.55,6.55,0,0,0-.39-.53c-.14-.19-.29-.37-.44-.54l-.38-.42a13.3,13.3,0,0,0-1.24-1.13L22,33.25V26Z"/><line x1="24" x2="27" y1="29" y2="29" fill="none" stroke="#b3b3b3" stroke-linejoin="round" stroke-width="2"/><line x1="38" x2="46" y1="30" y2="30" fill="none" stroke="#f15a24" stroke-linejoin="round" stroke-width="2"/><line x1="38" x2="43" y1="34" y2="34" fill="none" stroke="#f15a24" stroke-linejoin="round" stroke-width="2"/><line x1="15" x2="15" y1="34" y2="38" fill="none" stroke="#5e5e5e" stroke-linejoin="round" stroke-width="2"/><line x1="15" x2="15" y1="48" y2="52" fill="none" stroke="#5e5e5e" stroke-linejoin="round" stroke-width="2"/><line x1="24" x2="20" y1="43" y2="43" fill="none" stroke="#5e5e5e" stroke-linejoin="round" stroke-width="2"/><line x1="10" x2="6" y1="43" y2="43" fill="none" stroke="#5e5e5e" stroke-linejoin="round" stroke-width="2"/><circle cx="15" cy="43" r="2" fill="#f2f2f2"/><path fill="#ccc" d="M50,14.71V26H46V14.71L43.4,11.2l3.2-2.4,2.58,3.43A4.17,4.17,0,0,1,50,14.71Z"/><path fill="#e6e6e6" d="M50,14.71V19H46V14.71L43.4,11.2l3.2-2.4,2.58,3.43A4.17,4.17,0,0,1,50,14.71Z"/><polyline fill="none" stroke="#4f4f4f" stroke-linejoin="round" stroke-width="2" points="2 55 33 55 39.06 55 62 55"/><line x1="52" x2="52" y1="40" y2="44" fill="none" stroke="#5e5e5e" stroke-linejoin="round" stroke-width="2"/><line x1="52" x2="52" y1="48" y2="52" fill="none" stroke="#5e5e5e" stroke-linejoin="round" stroke-width="2"/><line x1="58" x2="54" y1="46" y2="46" fill="none" stroke="#5e5e5e" stroke-linejoin="round" stroke-width="2"/><line x1="50" x2="46" y1="46" y2="46" fill="none" stroke="#5e5e5e" stroke-linejoin="round" stroke-width="2"/><polygon fill="#a2e9fc" points="32.52 17.1 23.62 26 22 26 22 23.38 31.6 13.78 32.52 17.1"/><polygon fill="#a2e9fc" points="17 13 17 13.62 9 21.62 9 17.38 13.38 13 17 13"/><path d="M16,34.06V34H14v.06A8.94,8.94,0,0,0,6.07,42H6v2h.06A9,9,0,0,0,14,51.94V52h2v-.06A9,9,0,0,0,23.94,44H24V42h-.06A9,9,0,0,0,16,34.06Zm0,15.86V48H14v1.92A7,7,0,0,1,8.08,44H10V42H8.08a7,7,0,0,1,3.42-5.07,6.93,6.93,0,0,1,2.5-.85V38h2V36.08A7,7,0,0,1,21.92,42H20v2h1.92A7,7,0,0,1,16,49.92Z"/><path d="M62,46a10,10,0,0,0-2-6V35.42a10.58,10.58,0,0,0-.12-1.57A10.39,10.39,0,0,0,51,25.11V14.71a5.17,5.17,0,0,0-1-3.08L47.4,8.2A1,1,0,0,0,46,8l-3.2,2.4a1,1,0,0,0-.2,1.39L45,15V25H35.76L31.64,10.2A3,3,0,0,0,28.75,8H17v2H28.75a1,1,0,0,1,1,.73L30.07,12H22a1,1,0,0,0-1,1V25H18V13a1,1,0,0,0-1-1H10V11a1,1,0,0,1,1-1h4V8H11a3,3,0,0,0-3,3v21a13,13,0,0,0,.1,22H2v2H33V54H21.91a12.94,12.94,0,0,0,5.34-6.66A12.59,12.59,0,0,0,28,44H42.21A10.2,10.2,0,0,0,42,46a10,10,0,0,0,4,8h-7v2H62V54H58A10,10,0,0,0,62,46Zm-4.81-8.54q-.36-.23-.75-.42l-.26-.12-.74-.31-.19-.07c-.31-.1-.62-.19-.94-.27l-.24-.05c-.26,0-.51-.1-.77-.13l-.29,0A8.43,8.43,0,0,0,52,36a11,11,0,0,0-1.41.1l-.09,0a7.91,7.91,0,0,0-1.3.29l-.15,0a9.45,9.45,0,0,0-1.19.46L47.7,37a10.1,10.1,0,0,0-1.11.62l-.15.1a10.53,10.53,0,0,0-1,.76l-.13.12a9.66,9.66,0,0,0-.9.91l-.09.12a10.33,10.33,0,0,0-.78,1.06l0,.1A9.33,9.33,0,0,0,42.85,42v0H36V27H49.58A8.42,8.42,0,0,1,55,29H52a1,1,0,0,0-1,1v4a1,1,0,0,0,1,1h6c0,.14,0,.28,0,.42V38a6.45,6.45,0,0,0-.69-.47Zm0-5.72c.06.13.12.25.17.38a5.33,5.33,0,0,1,.23.6,2.29,2.29,0,0,1,.09.28H53V31h3.73a1.74,1.74,0,0,0,.11.18C57,31.36,57,31.55,57.14,31.74ZM44.8,11.4l1.6-1.2,2,2.63A3.16,3.16,0,0,1,49,14.71V18H47V14.71a1,1,0,0,0-.2-.59ZM47,20h2v5H47ZM23,14h7.62l3.06,11H23ZM13.46,30.1l-.45.07a10.89,10.89,0,0,0-1.11.22l-.44.11a11.36,11.36,0,0,0-1.39.47L10,31h0V27H21v4.47A12.92,12.92,0,0,0,15,30,13.13,13.13,0,0,0,13.46,30.1ZM16,14V25H10V14Zm9.37,32.67A11,11,0,1,1,15,32a10.9,10.9,0,0,1,6.42,2.07,9.7,9.7,0,0,1,1,.81l.08.07a11,11,0,0,1,2.8,4.19,1,1,0,0,1,.08.25c.12.33.23.67.32,1h0A11.19,11.19,0,0,1,26,43,10.81,10.81,0,0,1,25.37,46.67ZM28,42s0-.07,0-.11a2.45,2.45,0,0,0,0-.27v-.11c0-.33-.09-.64-.16-1l0-.14a1.84,1.84,0,0,0-.05-.25l-.09-.36a12.72,12.72,0,0,0-.48-1.51.42.42,0,0,1,0-.1h0v0L27,37.88l-.06-.16s0-.1-.06-.13c-.09-.19-.18-.39-.27-.54a1.91,1.91,0,0,0-.13-.25h0l0,0a8.88,8.88,0,0,0-.68-1.1l-.21-.31a2,2,0,0,0-.21-.26h0a4.05,4.05,0,0,0-.46-.56h0l0,0L24.4,34c-.19-.19-.37-.36-.56-.53l-.07-.08c-.23-.21-.46-.4-.68-.58h0l0,0-.06,0V27H34V42Zm16,4a7.77,7.77,0,0,1,.46-2.67A8,8,0,0,1,52,38a8.88,8.88,0,0,1,.9,0A8,8,0,0,1,60,46a8,8,0,0,1-16,0Z"/><path d="M56.66,42.23A6,6,0,0,0,52,40a6,6,0,0,0-5.66,4A5.72,5.72,0,0,0,46,46a6,6,0,1,0,10.66-3.77ZM53,49.86V48H51v1.86A4,4,0,0,1,48.14,47H50V45H48.14c0-.1,0-.21.08-.31A4,4,0,0,1,51,42.14V44h2V42.14a3.9,3.9,0,0,1,2.1,1.35A4,4,0,0,1,55.85,45H54v2h1.86A4,4,0,0,1,53,49.86Z"/><rect width="3" height="2" x="24" y="28"/><rect width="8" height="2" x="38" y="29"/><rect width="5" height="2" x="38" y="33"/><path d="M15,40a3,3,0,1,0,3,3A3,3,0,0,0,15,40Zm0,4a1,1,0,1,1,1-1A1,1,0,0,1,15,44Z"/><rect width="2.06" height="2" x="35" y="54"/></svg>